<svg width="642" height="115" viewBox="0 0 642 115" fill="none" xmlns="http://www.w3.org/2000/svg">
<path fill-rule="evenodd" clip-rule="evenodd" d="M115.934 57.5C115.934 89.2564 90.1905 115 58.4341 115C29.4453 115 5.46696 93.548 1.50762 65.6528C7.206 67.4532 13.2728 68.4242 19.5664 68.4242C41.7981 68.4242 61.1999 56.3079 71.5287 38.3185C64.1624 33.3284 55.2757 30.4135 45.7082 30.4135C24.5554 30.4135 6.73039 44.6617 1.30694 64.0842C1.06064 61.9236 0.934082 59.7266 0.934082 57.5C0.934082 25.7436 26.6777 0 58.4341 0C90.1905 0 115.934 25.7436 115.934 57.5ZM108.321 54.6443C108.321 80.1019 87.6834 100.739 62.2258 100.739C46.5134 100.739 32.6372 92.8779 24.316 80.8738C32.5689 81.0829 40.9802 79.078 48.6378 74.6183C61.8617 66.9169 69.8276 53.648 71.2956 39.5095C71.1833 39.501 71.071 39.4929 70.9587 39.485C74.8527 36.4089 78.2314 32.7217 80.9561 28.5763C70.9978 22.4188 59.1348 19.1118 46.5566 19.7328C40.0914 20.0519 33.9165 21.3852 28.1782 23.571C36.6074 14.3402 48.7403 8.54919 62.2258 8.54919C87.6834 8.54919 108.321 29.1867 108.321 54.6443Z" fill="#1B75BB"/>
<path fill-rule="evenodd" clip-rule="evenodd" d="M19.891 69.3769C42.1227 69.3769 61.5245 56.6549 71.8533 37.7661C64.4848 32.5217 55.594 29.458 46.0217 29.458C28.0172 29.458 12.4237 40.2966 4.83635 56.0987C11.5404 44.4859 25.2404 35.5909 41.8872 33.5538C51.3878 32.3912 60.4955 33.6279 68.2943 36.6985C59.7902 52.2384 41.7092 64.2166 19.6416 66.9171C14.384 67.5604 9.21909 67.6381 4.23877 67.207C9.22811 68.622 14.4756 69.3769 19.891 69.3769Z" fill="#26A9E0"/>
<path d="M138.893 66V16.2354H158.819C162.48 16.2354 165.533 16.7781 167.98 17.8635C170.426 18.9488 172.264 20.4554 173.495 22.3831C174.727 24.2946 175.342 26.4978 175.342 28.9925C175.342 30.9364 174.953 32.6454 174.176 34.1196C173.398 35.5775 172.329 36.7763 170.968 37.7158C169.624 38.6392 168.085 39.2953 166.351 39.6841V40.17C168.247 40.251 170.021 40.7856 171.673 41.7738C173.342 42.762 174.694 44.147 175.731 45.9289C176.768 47.6947 177.286 49.8006 177.286 52.2467C177.286 54.8872 176.63 57.2442 175.318 59.3177C174.022 61.3751 172.102 63.0031 169.559 64.2019C167.016 65.4006 163.881 66 160.155 66H138.893ZM149.415 57.3981H157.993C160.925 57.3981 163.063 56.8392 164.408 55.7215C165.752 54.5875 166.424 53.081 166.424 51.2018C166.424 49.8249 166.092 48.6099 165.428 47.557C164.764 46.504 163.816 45.6778 162.585 45.0785C161.37 44.4791 159.92 44.1794 158.236 44.1794H149.415V57.3981ZM149.415 37.0598H157.215C158.657 37.0598 159.937 36.8087 161.054 36.3065C162.188 35.7881 163.079 35.0591 163.727 34.1196C164.391 33.18 164.723 32.0541 164.723 30.742C164.723 28.9439 164.084 27.494 162.804 26.3925C161.54 25.2909 159.742 24.7401 157.409 24.7401H149.415V37.0598ZM194.581 66.7047C192.2 66.7047 190.078 66.2916 188.215 65.4654C186.352 64.6231 184.878 63.3838 183.792 61.7477C182.723 60.0953 182.188 58.038 182.188 55.5757C182.188 53.5022 182.569 51.7607 183.33 50.3514C184.092 48.942 185.129 47.8081 186.441 46.9495C187.753 46.0909 189.243 45.443 190.912 45.0056C192.597 44.5682 194.362 44.2604 196.209 44.0822C198.38 43.8554 200.129 43.6448 201.458 43.4504C202.786 43.2398 203.75 42.932 204.349 42.5271C204.949 42.1221 205.248 41.5227 205.248 40.7289V40.5831C205.248 39.0442 204.762 37.8535 203.79 37.0112C202.835 36.1688 201.474 35.7476 199.708 35.7476C197.845 35.7476 196.363 36.1607 195.261 36.9869C194.16 37.7968 193.431 38.8174 193.074 40.0486L183.501 39.271C183.987 37.0031 184.942 35.0429 186.368 33.3906C187.793 31.7221 189.632 30.4423 191.884 29.5513C194.152 28.6442 196.776 28.1906 199.757 28.1906C201.83 28.1906 203.815 28.4336 205.71 28.9196C207.621 29.4055 209.314 30.1588 210.788 31.1794C212.279 32.1999 213.453 33.5121 214.312 35.1158C215.17 36.7034 215.6 38.6068 215.6 40.8261V66H205.783V60.8243H205.491C204.892 61.9906 204.09 63.0193 203.086 63.9103C202.081 64.785 200.874 65.4735 199.465 65.9757C198.056 66.4617 196.428 66.7047 194.581 66.7047ZM197.545 59.5607C199.068 59.5607 200.413 59.261 201.579 58.6617C202.745 58.0461 203.661 57.2199 204.325 56.1832C204.989 55.1464 205.321 53.9719 205.321 52.6598V48.699C204.997 48.9096 204.552 49.104 203.985 49.2822C203.434 49.4442 202.81 49.5981 202.114 49.7439C201.417 49.8735 200.721 49.995 200.024 50.1084C199.327 50.2056 198.696 50.2947 198.129 50.3757C196.914 50.5539 195.853 50.8374 194.945 51.2261C194.038 51.6149 193.334 52.1414 192.831 52.8056C192.329 53.4536 192.078 54.2635 192.078 55.2355C192.078 56.6448 192.588 57.7221 193.609 58.4673C194.646 59.1962 195.958 59.5607 197.545 59.5607ZM196.428 23.8653L201.579 12.8093H211.153L203.742 23.8653H196.428ZM240.494 66.729C236.671 66.729 233.383 65.919 230.629 64.2991C227.891 62.6629 225.785 60.395 224.311 57.4953C222.853 54.5956 222.124 51.2585 222.124 47.4841C222.124 43.661 222.861 40.3077 224.335 37.4242C225.826 34.5246 227.94 32.2647 230.677 30.6448C233.415 29.0087 236.671 28.1906 240.446 28.1906C243.702 28.1906 246.553 28.7819 248.999 29.9644C251.445 31.147 253.381 32.8074 254.806 34.9457C256.232 37.0841 257.018 39.595 257.163 42.4785H247.395C247.12 40.6155 246.391 39.1171 245.208 37.9831C244.042 36.833 242.511 36.2579 240.616 36.2579C239.012 36.2579 237.611 36.6953 236.412 37.57C235.229 38.4286 234.306 39.6841 233.642 41.3364C232.978 42.9887 232.646 44.9894 232.646 47.3383C232.646 49.7196 232.97 51.7445 233.617 53.4131C234.282 55.0816 235.213 56.3533 236.412 57.228C237.611 58.1028 239.012 58.5402 240.616 58.5402C241.798 58.5402 242.859 58.2972 243.799 57.8112C244.755 57.3252 245.54 56.6205 246.156 55.6972C246.788 54.7576 247.201 53.6318 247.395 52.3196H257.163C257.001 55.1707 256.224 57.6816 254.831 59.8523C253.454 62.0068 251.55 63.6916 249.12 64.9065C246.69 66.1215 243.815 66.729 240.494 66.729ZM274.142 44.4224V66H263.791V16.2354H273.851V35.2616H274.288C275.13 33.0585 276.491 31.3333 278.37 30.0859C280.249 28.8224 282.606 28.1906 285.441 28.1906C288.033 28.1906 290.293 28.7576 292.221 29.8915C294.165 31.0093 295.671 32.6211 296.74 34.727C297.826 36.8168 298.36 39.3196 298.344 42.2355V66H287.993V44.0822C288.009 41.7819 287.426 39.9919 286.243 38.7121C285.077 37.4323 283.441 36.7925 281.335 36.7925C279.925 36.7925 278.678 37.0922 277.593 37.6915C276.524 38.2909 275.681 39.1657 275.066 40.3158C274.466 41.4498 274.159 42.8187 274.142 44.4224ZM322.522 66V16.2354H333.043V36.7682H354.402V16.2354H364.899V66H354.402V45.443H333.043V66H322.522ZM390.243 66.729C386.469 66.729 383.205 65.9271 380.451 64.3234C377.713 62.7034 375.599 60.4517 374.109 57.5682C372.618 54.6685 371.873 51.3071 371.873 47.4841C371.873 43.6286 372.618 40.2591 374.109 37.3757C375.599 34.476 377.713 32.2242 380.451 30.6205C383.205 29.0006 386.469 28.1906 390.243 28.1906C394.018 28.1906 397.274 29.0006 400.012 30.6205C402.766 32.2242 404.888 34.476 406.378 37.3757C407.868 40.2591 408.614 43.6286 408.614 47.4841C408.614 51.3071 407.868 54.6685 406.378 57.5682C404.888 60.4517 402.766 62.7034 400.012 64.3234C397.274 65.9271 394.018 66.729 390.243 66.729ZM390.292 58.7103C392.009 58.7103 393.443 58.2243 394.593 57.2523C395.743 56.2642 396.61 54.9196 397.193 53.2187C397.792 51.5177 398.092 49.5819 398.092 47.4112C398.092 45.2405 397.792 43.3046 397.193 41.6037C396.61 39.9028 395.743 38.5582 394.593 37.57C393.443 36.5819 392.009 36.0878 390.292 36.0878C388.559 36.0878 387.101 36.5819 385.918 37.57C384.752 38.5582 383.869 39.9028 383.27 41.6037C382.686 43.3046 382.395 45.2405 382.395 47.4112C382.395 49.5819 382.686 51.5177 383.27 53.2187C383.869 54.9196 384.752 56.2642 385.918 57.2523C387.101 58.2243 388.559 58.7103 390.292 58.7103ZM386.526 23.8653L391.677 12.8093H401.251L393.84 23.8653H386.526ZM425.987 66.7047C423.606 66.7047 421.484 66.2916 419.621 65.4654C417.758 64.6231 416.284 63.3838 415.199 61.7477C414.129 60.0953 413.595 58.038 413.595 55.5757C413.595 53.5022 413.976 51.7607 414.737 50.3514C415.498 48.942 416.535 47.8081 417.847 46.9495C419.159 46.0909 420.65 45.443 422.318 45.0056C424.003 44.5682 425.769 44.2604 427.615 44.0822C429.786 43.8554 431.536 43.6448 432.864 43.4504C434.192 43.2398 435.156 42.932 435.756 42.5271C436.355 42.1221 436.655 41.5227 436.655 40.7289V40.5831C436.655 39.0442 436.169 37.8535 435.197 37.0112C434.241 36.1688 432.88 35.7476 431.115 35.7476C429.252 35.7476 427.769 36.1607 426.668 36.9869C425.566 37.7968 424.837 38.8174 424.481 40.0486L414.907 39.271C415.393 37.0031 416.349 35.0429 417.774 33.3906C419.2 31.7221 421.039 30.4423 423.29 29.5513C425.558 28.6442 428.182 28.1906 431.163 28.1906C433.237 28.1906 435.221 28.4336 437.116 28.9196C439.028 29.4055 440.721 30.1588 442.195 31.1794C443.685 32.1999 444.86 33.5121 445.718 35.1158C446.577 36.7034 447.006 38.6068 447.006 40.8261V66H437.189V60.8243H436.898C436.298 61.9906 435.496 63.0193 434.492 63.9103C433.488 64.785 432.281 65.4735 430.872 65.9757C429.462 66.4617 427.834 66.7047 425.987 66.7047ZM428.952 59.5607C430.475 59.5607 431.819 59.261 432.986 58.6617C434.152 58.0461 435.067 57.2199 435.731 56.1832C436.396 55.1464 436.728 53.9719 436.728 52.6598V48.699C436.404 48.9096 435.958 49.104 435.391 49.2822C434.84 49.4442 434.217 49.5981 433.52 49.7439C432.824 49.8735 432.127 49.995 431.43 50.1084C430.734 50.2056 430.102 50.2947 429.535 50.3757C428.32 50.5539 427.259 50.8374 426.352 51.2261C425.445 51.6149 424.74 52.1414 424.238 52.8056C423.736 53.4536 423.485 54.2635 423.485 55.2355C423.485 56.6448 423.995 57.7221 425.015 58.4673C426.052 59.1962 427.364 59.5607 428.952 59.5607ZM480.934 16.2354L490.969 33.1962H491.358L501.442 16.2354H513.324L498.138 41.1177L513.665 66H501.564L491.358 49.0149H490.969L480.764 66H468.711L484.287 41.1177L469.003 16.2354H480.934ZM530.431 66.7047C528.05 66.7047 525.928 66.2916 524.065 65.4654C522.202 64.6231 520.728 63.3838 519.642 61.7477C518.573 60.0953 518.039 58.038 518.039 55.5757C518.039 53.5022 518.419 51.7607 519.181 50.3514C519.942 48.942 520.979 47.8081 522.291 46.9495C523.603 46.0909 525.093 45.443 526.762 45.0056C528.447 44.5682 530.212 44.2604 532.059 44.0822C534.23 43.8554 535.979 43.6448 537.308 43.4504C538.636 43.2398 539.6 42.932 540.199 42.5271C540.799 42.1221 541.098 41.5227 541.098 40.7289V40.5831C541.098 39.0442 540.612 37.8535 539.64 37.0112C538.685 36.1688 537.324 35.7476 535.558 35.7476C533.695 35.7476 532.213 36.1607 531.111 36.9869C530.01 37.7968 529.281 38.8174 528.925 40.0486L519.351 39.271C519.837 37.0031 520.792 35.0429 522.218 33.3906C523.644 31.7221 525.482 30.4423 527.734 29.5513C530.002 28.6442 532.626 28.1906 535.607 28.1906C537.68 28.1906 539.665 28.4336 541.56 28.9196C543.472 29.4055 545.164 30.1588 546.639 31.1794C548.129 32.1999 549.303 33.5121 550.162 35.1158C551.02 36.7034 551.45 38.6068 551.45 40.8261V66H541.633V60.8243H541.341C540.742 61.9906 539.94 63.0193 538.936 63.9103C537.931 64.785 536.725 65.4735 535.315 65.9757C533.906 66.4617 532.278 66.7047 530.431 66.7047ZM533.396 59.5607C534.918 59.5607 536.263 59.261 537.429 58.6617C538.596 58.0461 539.511 57.2199 540.175 56.1832C540.839 55.1464 541.171 53.9719 541.171 52.6598V48.699C540.847 48.9096 540.402 49.104 539.835 49.2822C539.284 49.4442 538.66 49.5981 537.964 49.7439C537.267 49.8735 536.571 49.995 535.874 50.1084C535.177 50.2056 534.546 50.2947 533.979 50.3757C532.764 50.5539 531.703 50.8374 530.796 51.2261C529.888 51.6149 529.184 52.1414 528.682 52.8056C528.179 53.4536 527.928 54.2635 527.928 55.2355C527.928 56.6448 528.439 57.7221 529.459 58.4673C530.496 59.1962 531.808 59.5607 533.396 59.5607ZM569.832 44.4224V66H559.481V28.6766H569.346V35.2616H569.783C570.61 33.0909 571.995 31.3738 573.939 30.1102C575.883 28.8305 578.24 28.1906 581.01 28.1906C583.602 28.1906 585.861 28.7576 587.789 29.8915C589.717 31.0255 591.215 32.6454 592.284 34.7513C593.354 36.8411 593.888 39.3358 593.888 42.2355V66H583.537V44.0822C583.553 41.7981 582.97 40.0162 581.787 38.7364C580.605 37.4404 578.977 36.7925 576.903 36.7925C575.51 36.7925 574.279 37.0922 573.21 37.6915C572.157 38.2909 571.331 39.1657 570.731 40.3158C570.148 41.4498 569.848 42.8187 569.832 44.4224ZM612.398 44.4224V66H602.047V16.2354H612.106V35.2616H612.544C613.386 33.0585 614.747 31.3333 616.626 30.0859C618.505 28.8224 620.862 28.1906 623.697 28.1906C626.289 28.1906 628.549 28.7576 630.477 29.8915C632.42 31.0093 633.927 32.6211 634.996 34.727C636.082 36.8168 636.616 39.3196 636.6 42.2355V66H626.248V44.0822C626.265 41.7819 625.682 39.9919 624.499 38.7121C623.333 37.4323 621.696 36.7925 619.591 36.7925C618.181 36.7925 616.934 37.0922 615.848 37.6915C614.779 38.2909 613.937 39.1657 613.321 40.3158C612.722 41.4498 612.414 42.8187 612.398 44.4224Z" fill="#1B75BB"/>
<path d="M285.572 105.615C287.957 105.615 289.149 104.647 289.149 102.71C289.149 101.765 288.565 100.965 287.396 100.309C286.868 100.005 286.284 99.7166 285.644 99.4445C285.019 99.1724 284.387 98.8762 283.747 98.5561C283.107 98.236 282.522 97.8919 281.994 97.5237C281.482 97.1556 281.058 96.6914 280.722 96.1311C280.401 95.5709 280.241 94.9387 280.241 94.2344C280.241 93.0819 280.706 92.1055 281.634 91.3052C282.578 90.4889 283.867 90.0807 285.5 90.0807C287.132 90.0807 288.853 90.5769 290.662 91.5693C290.662 92.4817 290.55 93.6261 290.325 95.0027C289.973 95.0507 289.509 95.0747 288.933 95.0747L288.213 92.2896C288.021 92.1935 287.636 92.0975 287.06 92.0015C286.5 91.9054 286.004 91.8574 285.572 91.8574C284.643 91.8574 283.923 92.0575 283.411 92.4576C282.898 92.8418 282.642 93.386 282.642 94.0903C282.642 94.7786 282.938 95.4028 283.531 95.9631C284.139 96.5073 284.867 96.9795 285.716 97.3796C286.58 97.7638 287.436 98.164 288.285 98.5801C289.149 98.9963 289.877 99.5405 290.47 100.213C291.078 100.869 291.382 101.637 291.382 102.518C291.382 104.118 290.846 105.359 289.773 106.239C288.701 107.104 287.3 107.536 285.572 107.536C284.627 107.536 283.603 107.392 282.498 107.104C281.41 106.799 280.506 106.415 279.785 105.951C279.817 104.879 279.937 103.638 280.145 102.23C280.497 102.182 280.962 102.158 281.538 102.158L282.042 105.039C282.394 105.183 282.922 105.319 283.627 105.447C284.347 105.559 284.995 105.615 285.572 105.615ZM299.383 94.1383C300.952 94.1383 302.112 94.4825 302.864 95.1707C303.617 95.859 303.993 96.9555 303.993 98.4601V107.224H302.456L302.048 105.399H301.952C301.584 105.863 301.2 106.255 300.8 106.575C300.415 106.879 299.967 107.104 299.455 107.248C298.959 107.392 298.351 107.464 297.63 107.464C296.862 107.464 296.166 107.328 295.541 107.056C294.933 106.783 294.453 106.367 294.101 105.807C293.749 105.231 293.573 104.511 293.573 103.646C293.573 102.366 294.077 101.381 295.085 100.693C296.094 99.9887 297.646 99.6045 299.743 99.5405L301.928 99.4685V98.7002C301.928 97.6277 301.696 96.8834 301.232 96.4673C300.768 96.0511 300.111 95.843 299.263 95.843C298.591 95.843 297.95 95.9471 297.342 96.1551C296.734 96.3472 296.166 96.5713 295.637 96.8274L294.989 95.2428C295.549 94.9387 296.214 94.6826 296.982 94.4745C297.75 94.2504 298.551 94.1383 299.383 94.1383ZM300.007 101.005C298.407 101.069 297.294 101.325 296.67 101.773C296.062 102.222 295.758 102.854 295.758 103.67C295.758 104.39 295.974 104.919 296.406 105.255C296.854 105.591 297.422 105.759 298.11 105.759C299.199 105.759 300.103 105.463 300.824 104.871C301.544 104.262 301.904 103.334 301.904 102.086V100.933L300.007 101.005ZM299.191 111.449C298.855 111.449 298.559 111.337 298.303 111.113C298.062 110.889 297.942 110.553 297.942 110.105C297.942 109.641 298.062 109.296 298.303 109.072C298.559 108.864 298.855 108.76 299.191 108.76C299.527 108.76 299.815 108.864 300.055 109.072C300.311 109.296 300.439 109.641 300.439 110.105C300.439 110.553 300.311 110.889 300.055 111.113C299.815 111.337 299.527 111.449 299.191 111.449ZM312.505 107.512C310.585 107.512 309.152 106.976 308.208 105.903C307.263 104.815 306.791 103.27 306.791 101.269C306.791 96.9155 308.728 94.7386 312.601 94.7386C313.226 94.7386 313.874 94.8346 314.546 95.0267C315.219 95.2028 315.747 95.4028 316.131 95.6269C316.083 97.1155 315.931 98.172 315.675 98.7962C315.387 98.8762 315.154 98.9163 314.978 98.9163H314.57C314.49 98.9163 314.394 98.9083 314.282 98.8923L313.682 96.2512C313.154 96.2032 312.85 96.1792 312.77 96.1792C311.617 96.1792 310.697 96.5313 310.008 97.2356C309.336 97.9399 309 99.1244 309 100.789C309 102.454 309.256 103.718 309.768 104.583C310.297 105.447 311.305 105.879 312.794 105.879C313.498 105.879 314.602 105.543 316.107 104.871C316.411 105.287 316.571 105.655 316.587 105.975C315.771 106.455 314.97 106.831 314.186 107.104C313.402 107.376 312.842 107.512 312.505 107.512ZM321.477 89.3844C321.974 89.3844 322.326 89.4004 322.534 89.4324C322.534 89.7205 322.486 90.0967 322.39 90.5609C322.31 91.0091 322.254 91.2732 322.222 91.3532C322.222 91.7053 322.206 92.4336 322.174 93.5381C322.142 94.6425 322.126 95.4989 322.126 96.1071C322.814 95.739 323.494 95.4188 324.166 95.1467C324.855 94.8746 325.287 94.7386 325.463 94.7386C327 94.7386 328.112 95.1227 328.8 95.891C329.489 96.6433 329.833 97.7958 329.833 99.3484C329.833 99.7966 329.769 101.877 329.641 105.591L331.657 105.783C331.657 106.231 331.521 106.711 331.249 107.224H325.727L325.655 106.383C326.391 106.127 327.112 105.935 327.816 105.807C327.72 101.613 327.632 99.2844 327.552 98.8202C327.488 98.34 327.376 97.9239 327.216 97.5717C327.056 97.2196 326.816 96.9715 326.495 96.8274C326.175 96.6834 325.751 96.6113 325.223 96.6113C324.134 96.6113 323.094 96.8674 322.102 97.3796L321.958 105.591L323.974 105.783C323.974 106.231 323.838 106.711 323.566 107.224H318.044L317.972 106.383C318.708 106.127 319.429 105.935 320.133 105.807L319.845 91.2812C318.964 91.2332 318.26 91.1371 317.732 90.9931L317.828 89.7445C318.644 89.5045 319.861 89.3844 321.477 89.3844ZM345.03 100.453C345.062 100.709 345.078 100.925 345.078 101.101L345.03 101.941C344.197 102.022 343.413 102.062 342.677 102.062L339.46 101.941C339.428 101.829 339.412 101.621 339.412 101.317L339.46 100.453C340.292 100.373 341.076 100.333 341.812 100.333L345.03 100.453ZM361.618 92.3376C361.106 92.1775 360.426 92.0975 359.578 92.0975H357.585L357.513 98.148L359.338 98.1239C360.522 98.1079 361.466 97.8678 362.171 97.4037C362.875 96.9395 363.227 96.0591 363.227 94.7626C363.227 93.4501 362.691 92.6417 361.618 92.3376ZM357.489 99.6846L357.417 105.615L359.41 105.783C359.41 106.231 359.273 106.711 359.001 107.224H353.479L353.407 106.383C354.079 106.143 354.768 105.959 355.472 105.831C355.376 99.7486 355.296 95.1067 355.232 91.9054C354.784 91.8414 354.079 91.6493 353.119 91.3292C353.119 91.1211 353.159 90.817 353.239 90.4168H358.641C361.57 90.4168 363.475 90.777 364.356 91.4973C365.22 92.1855 365.652 93.266 365.652 94.7386C365.652 97.2196 364.292 98.8282 361.57 99.5645L365.676 105.639L367.669 105.807C367.669 106.239 367.533 106.711 367.261 107.224H364.308L359.265 99.6846H357.489ZM377.903 89.6965C377.903 90.3048 377.719 90.777 377.351 91.1131C376.983 91.4332 376.518 91.6573 375.958 91.7854L375.838 93.0579H374.542L374.374 91.0171C374.95 90.921 375.406 90.785 375.742 90.6089C376.094 90.4168 376.27 90.1367 376.27 89.7686C376.27 89.3844 376.118 89.1283 375.814 89.0002C375.526 88.8722 375.158 88.8082 374.71 88.8082C374.502 88.8082 374.286 88.8162 374.061 88.8322C373.853 88.8482 373.685 88.8722 373.557 88.9042V87.6557C373.701 87.6077 373.877 87.5757 374.085 87.5597C374.31 87.5277 374.574 87.5116 374.878 87.5116C375.838 87.5116 376.583 87.6877 377.111 88.0399C377.639 88.392 377.903 88.9442 377.903 89.6965ZM375.166 94.1143C376.27 94.1143 377.215 94.3544 377.999 94.8346C378.799 95.3148 379.408 95.9951 379.824 96.8754C380.256 97.7398 380.472 98.7562 380.472 99.9247V101.197H371.661C371.693 102.654 372.061 103.766 372.765 104.535C373.485 105.287 374.486 105.663 375.766 105.663C376.583 105.663 377.303 105.591 377.927 105.447C378.567 105.287 379.224 105.063 379.896 104.775V106.623C379.24 106.912 378.591 107.12 377.951 107.248C377.311 107.392 376.55 107.464 375.67 107.464C374.454 107.464 373.373 107.216 372.429 106.719C371.5 106.223 370.772 105.487 370.244 104.511C369.732 103.518 369.476 102.31 369.476 100.885C369.476 99.4765 369.708 98.268 370.172 97.2596C370.652 96.2512 371.316 95.4749 372.165 94.9307C373.029 94.3864 374.029 94.1143 375.166 94.1143ZM375.142 95.843C374.134 95.843 373.333 96.1712 372.741 96.8274C372.165 97.4677 371.821 98.364 371.709 99.5165H378.263C378.263 98.7802 378.151 98.14 377.927 97.5957C377.703 97.0515 377.359 96.6273 376.895 96.3232C376.446 96.0031 375.862 95.843 375.142 95.843ZM394.667 100.453C394.699 100.709 394.715 100.925 394.715 101.101L394.667 101.941C393.835 102.022 393.05 102.062 392.314 102.062L389.097 101.941C389.065 101.829 389.049 101.621 389.049 101.317L389.097 100.453C389.929 100.373 390.713 100.333 391.45 100.333L394.667 100.453ZM405.902 90.921C406.19 90.825 406.974 90.7209 408.255 90.6089C409.535 90.4808 410.696 90.4168 411.736 90.4168C412.792 90.4168 413.609 90.4648 414.185 90.5609C414.201 90.6249 414.209 90.7049 414.209 90.801C414.209 90.881 414.161 91.0811 414.065 91.4012C413.985 91.7213 413.921 91.9294 413.873 92.0255C413.745 92.1535 413.385 92.2496 412.792 92.3136L417.378 105.591L419.659 105.783C419.659 106.231 419.523 106.711 419.251 107.224H413.729L413.657 106.383C414.025 106.191 414.561 106.023 415.265 105.879L414.041 102.446H407.342L406.214 105.591L408.158 105.783C408.158 106.231 408.022 106.711 407.75 107.224H402.228L402.156 106.383C402.78 106.159 403.445 105.983 404.149 105.855L408.807 92.2416C407.382 92.0815 406.382 91.8894 405.806 91.6653L405.902 90.921ZM412.144 97.0915L410.872 92.3856C410.776 92.3696 410.639 92.3616 410.463 92.3616L409.167 97.2596L407.774 100.909H413.609L412.144 97.0915ZM428.141 94.7386C429.677 94.7386 430.79 95.1227 431.478 95.891C432.166 96.6433 432.511 97.7958 432.511 99.3484C432.511 99.7966 432.447 101.877 432.318 105.591L434.335 105.783C434.335 106.231 434.199 106.711 433.927 107.224H428.405L428.333 106.383C429.069 106.127 429.789 105.935 430.494 105.807C430.398 101.613 430.31 99.2844 430.23 98.8202C430.166 98.34 430.054 97.9239 429.893 97.5717C429.733 97.2196 429.493 96.9715 429.173 96.8274C428.853 96.6834 428.429 96.6113 427.901 96.6113C426.844 96.6113 425.82 96.8674 424.827 97.3796C424.731 101.029 424.667 103.766 424.635 105.591L426.652 105.783C426.652 106.231 426.516 106.711 426.244 107.224H420.722L420.65 106.383C421.386 106.127 422.106 105.935 422.811 105.807C422.715 101.741 422.635 98.7322 422.571 96.7794C421.69 96.7314 420.986 96.6353 420.458 96.4913L420.554 95.2428C421.418 95.0027 422.675 94.8826 424.323 94.8826C424.515 95.1707 424.659 95.5869 424.755 96.1311C425.444 95.763 426.132 95.4429 426.82 95.1707C427.525 94.8826 427.965 94.7386 428.141 94.7386ZM449.557 91.9054C449.477 94.5945 449.389 99.1564 449.293 105.591L451.31 105.783C451.31 106.231 451.174 106.711 450.901 107.224H445.379L445.307 106.383C446.236 106.047 446.972 105.855 447.516 105.807C447.356 99.6286 447.228 94.9947 447.132 91.9054H443.626L443.05 94.3544L441.658 94.2584C441.418 93.282 441.298 92.2896 441.298 91.2812C441.298 91.0891 441.314 90.801 441.346 90.4168H455.175C455.207 90.6249 455.223 90.945 455.223 91.3772C455.223 92.2416 455.111 93.1859 454.887 94.2104C454.535 94.3064 454.071 94.3544 453.494 94.3544L452.894 91.9054H449.557ZM462.14 106.071C463.485 106.071 464.389 105.655 464.853 104.823C465.334 103.974 465.574 102.774 465.574 101.221C465.574 98.7562 465.029 97.2116 463.941 96.5873C463.493 96.3312 462.861 96.2032 462.044 96.2032C461.244 96.2032 460.484 96.3712 459.763 96.7074C459.123 97.9399 458.803 99.3725 458.803 101.005C458.803 102.574 459.011 103.782 459.427 104.631C459.907 105.591 460.812 106.071 462.14 106.071ZM456.594 101.221C456.594 99.1884 457.058 97.6037 457.987 96.4673C458.915 95.3148 460.347 94.7386 462.284 94.7386C464.221 94.7386 465.622 95.2668 466.486 96.3232C467.35 97.3636 467.782 98.9083 467.782 100.957C467.782 103.006 467.318 104.615 466.39 105.783C465.478 106.952 464.085 107.536 462.212 107.536C460.339 107.536 458.931 106.992 457.987 105.903C457.058 104.815 456.594 103.254 456.594 101.221ZM477.004 92.2896C476.636 92.7218 476.316 93.0499 476.044 93.274C474.635 92.6017 473.499 91.8494 472.635 91.0171C472.651 90.793 472.739 90.5609 472.899 90.3208C473.075 90.0807 473.323 89.8246 473.643 89.5525L477.004 92.2896ZM479.165 99.3725L479.045 105.567C479.733 105.615 480.422 105.727 481.11 105.903L481.062 106.743C480.806 106.871 480.342 107.016 479.669 107.176C479.013 107.32 478.365 107.392 477.725 107.392C477.436 106.815 477.276 106.263 477.244 105.735C475.42 106.936 474.139 107.536 473.403 107.536C472.266 107.536 471.354 107.232 470.666 106.623C469.977 106.015 469.633 105.167 469.633 104.078C469.633 101.565 471.17 100.269 474.243 100.189C476.036 100.141 476.94 100.117 476.956 100.117L476.932 99.3004C476.9 98.196 476.692 97.4037 476.308 96.9235C475.924 96.4273 475.236 96.1792 474.243 96.1792C473.827 96.1792 473.379 96.2752 472.899 96.4673L472.322 98.8682C472.242 98.8843 472.106 98.8923 471.914 98.8923L470.93 98.8202C470.674 98.1319 470.538 97.1796 470.522 95.9631C470.826 95.803 471.522 95.5629 472.611 95.2428C473.699 94.9066 474.395 94.7386 474.699 94.7386C476.332 94.7386 477.485 95.0987 478.157 95.819C478.829 96.5393 479.165 97.7238 479.165 99.3725ZM473.931 105.903C474.395 105.903 475.468 105.383 477.148 104.342L477.028 101.341C475.94 101.437 475.028 101.525 474.291 101.605C473.555 101.685 472.963 101.901 472.514 102.254C472.066 102.59 471.842 103.126 471.842 103.862C471.842 105.223 472.539 105.903 473.931 105.903ZM489.947 94.7386C491.484 94.7386 492.596 95.1227 493.284 95.891C493.973 96.6433 494.317 97.7958 494.317 99.3484C494.317 99.7966 494.253 101.877 494.125 105.591L496.142 105.783C496.142 106.231 496.006 106.711 495.733 107.224H490.211L490.139 106.383C490.875 106.127 491.596 105.935 492.3 105.807C492.204 101.613 492.116 99.2844 492.036 98.8202C491.972 98.34 491.86 97.9239 491.7 97.5717C491.54 97.2196 491.3 96.9715 490.979 96.8274C490.659 96.6834 490.235 96.6113 489.707 96.6113C488.651 96.6113 487.626 96.8674 486.634 97.3796C486.538 101.029 486.474 103.766 486.442 105.591L488.458 105.783C488.458 106.231 488.322 106.711 488.05 107.224H482.528L482.456 106.383C483.192 106.127 483.913 105.935 484.617 105.807C484.521 101.741 484.441 98.7322 484.377 96.7794C483.496 96.7314 482.792 96.6353 482.264 96.4913L482.36 95.2428C483.224 95.0027 484.481 94.8826 486.13 94.8826C486.322 95.1707 486.466 95.5869 486.562 96.1311C487.25 95.763 487.938 95.4429 488.627 95.1707C489.331 94.8826 489.771 94.7386 489.947 94.7386Z" fill="black"/>
</svg>
