<svg width="641" height="115" viewBox="0 0 641 115" fill="none" xmlns="http://www.w3.org/2000/svg">
<path fill-rule="evenodd" clip-rule="evenodd" d="M115 57.5C115 89.2564 89.2564 115 57.5 115C28.5113 115 4.53288 93.548 0.573542 65.6528C6.27192 67.4532 12.3387 68.4242 18.6323 68.4242C40.864 68.4242 60.2659 56.3079 70.5947 38.3185C63.2284 33.3284 54.3416 30.4135 44.7741 30.4135C23.6213 30.4135 5.79631 44.6617 0.372861 64.0842C0.126554 61.9236 0 59.7266 0 57.5C0 25.7436 25.7436 0 57.5 0C89.2564 0 115 25.7436 115 57.5ZM107.387 54.6443C107.387 80.1019 86.7493 100.739 61.2917 100.739C45.5793 100.739 31.7031 92.8779 23.3819 80.8738C31.6348 81.0829 40.0461 79.078 47.7038 74.6183C60.9276 66.9169 68.8935 53.648 70.3615 39.5095C70.2491 39.501 70.1367 39.4928 70.0243 39.485C73.9183 36.4089 77.297 32.7216 80.0218 28.5763C70.0635 22.4188 58.2005 19.1118 45.6223 19.7328C39.1573 20.0519 32.9825 21.3851 27.2442 23.5709C35.6734 14.3401 47.8063 8.54919 61.2917 8.54919C86.7493 8.54919 107.387 29.1867 107.387 54.6443Z" fill="#1B75BB"/>
<path fill-rule="evenodd" clip-rule="evenodd" d="M18.9569 69.3769C41.1886 69.3769 60.5904 56.6549 70.9192 37.7661C63.5507 32.5217 54.6599 29.458 45.0877 29.458C27.0831 29.458 11.4896 40.2966 3.90227 56.0987C10.6063 44.4859 24.3063 35.5909 40.9531 33.5538C50.4537 32.3912 59.5614 33.6279 67.3602 36.6985C58.8562 52.2384 40.7751 64.2166 18.7075 66.9171C13.45 67.5604 8.28501 67.6381 3.30469 67.207C8.29403 68.622 13.5415 69.3769 18.9569 69.3769Z" fill="#26A9E0"/>
<path d="M232.814 66V16.2354H252.739C256.4 16.2354 259.454 16.7781 261.9 17.8635C264.346 18.9488 266.185 20.4554 267.416 22.3831C268.647 24.2946 269.263 26.4978 269.263 28.9925C269.263 30.9364 268.874 32.6454 268.096 34.1196C267.319 35.5775 266.25 36.7763 264.889 37.7158C263.544 38.6392 262.005 39.2953 260.272 39.6841V40.17C262.167 40.251 263.941 40.7856 265.593 41.7738C267.262 42.762 268.615 44.147 269.651 45.9289C270.688 47.6947 271.207 49.8006 271.207 52.2467C271.207 54.8872 270.551 57.2442 269.238 59.3177C267.942 61.3751 266.023 63.0031 263.479 64.2019C260.936 65.4006 257.802 66 254.076 66H232.814ZM243.336 57.3981H251.913C254.845 57.3981 256.984 56.8392 258.328 55.7215C259.673 54.5875 260.345 53.081 260.345 51.2018C260.345 49.8249 260.013 48.6099 259.349 47.557C258.684 46.504 257.737 45.6778 256.506 45.0785C255.291 44.4791 253.841 44.1794 252.156 44.1794H243.336V57.3981ZM243.336 37.0598H251.136C252.577 37.0598 253.857 36.8087 254.975 36.3065C256.109 35.7881 257 35.0591 257.648 34.1196C258.312 33.18 258.644 32.0541 258.644 30.742C258.644 28.9439 258.004 27.494 256.724 26.3925C255.461 25.2909 253.663 24.7401 251.33 24.7401H243.336V37.0598ZM286.63 66H275.356L292.535 16.2354H306.094L323.249 66H311.974L299.509 27.6074H299.12L286.63 66ZM285.926 46.4392H312.558V54.6523H285.926V46.4392ZM295.597 11.4242L300.748 0.368112H310.322L302.911 11.4242H295.597ZM372.631 41.1177C372.631 46.5445 371.602 51.1613 369.545 54.9682C367.504 58.7751 364.718 61.6829 361.186 63.6916C357.671 65.6841 353.718 66.6804 349.328 66.6804C344.906 66.6804 340.937 65.676 337.422 63.6673C333.906 61.6586 331.128 58.7508 329.087 54.9439C327.046 51.137 326.025 46.5283 326.025 41.1177C326.025 35.6909 327.046 31.0741 329.087 27.2672C331.128 23.4604 333.906 20.5607 337.422 18.5681C340.937 16.5594 344.906 15.5551 349.328 15.5551C353.718 15.5551 357.671 16.5594 361.186 18.5681C364.718 20.5607 367.504 23.4604 369.545 27.2672C371.602 31.0741 372.631 35.6909 372.631 41.1177ZM361.964 41.1177C361.964 37.6024 361.437 34.638 360.384 32.2242C359.348 29.8105 357.881 27.98 355.986 26.7326C354.091 25.4853 351.872 24.8616 349.328 24.8616C346.785 24.8616 344.566 25.4853 342.67 26.7326C340.775 27.98 339.301 29.8105 338.248 32.2242C337.211 34.638 336.693 37.6024 336.693 41.1177C336.693 44.633 337.211 47.5975 338.248 50.0112C339.301 52.4249 340.775 54.2554 342.67 55.5028C344.566 56.7501 346.785 57.3738 349.328 57.3738C351.872 57.3738 354.091 56.7501 355.986 55.5028C357.881 54.2554 359.348 52.4249 360.384 50.0112C361.437 47.5975 361.964 44.633 361.964 41.1177ZM440.17 33.6579H429.527C429.333 32.2809 428.936 31.0579 428.337 29.9887C427.737 28.9034 426.968 27.98 426.028 27.2186C425.089 26.4573 424.003 25.8741 422.772 25.4691C421.557 25.0641 420.237 24.8616 418.812 24.8616C416.236 24.8616 413.992 25.5015 412.081 26.7812C410.169 28.0448 408.687 29.8915 407.634 32.3214C406.581 34.7351 406.054 37.6672 406.054 41.1177C406.054 44.6654 406.581 47.6461 407.634 50.0598C408.703 52.4735 410.193 54.2959 412.105 55.5271C414.016 56.7582 416.228 57.3738 418.739 57.3738C420.148 57.3738 421.452 57.1875 422.651 56.8149C423.866 56.4424 424.943 55.8997 425.883 55.1869C426.822 54.4579 427.6 53.5751 428.215 52.5383C428.847 51.5015 429.284 50.319 429.527 48.9906L440.17 49.0392C439.895 51.3233 439.207 53.5265 438.105 55.6486C437.02 57.7545 435.554 59.6417 433.707 61.3103C431.876 62.9626 429.689 64.2748 427.146 65.2467C424.619 66.2025 421.76 66.6804 418.569 66.6804C414.13 66.6804 410.161 65.676 406.662 63.6673C403.179 61.6586 400.425 58.7508 398.4 54.9439C396.392 51.137 395.387 46.5283 395.387 41.1177C395.387 35.6909 396.408 31.0741 398.449 27.2672C400.49 23.4604 403.26 20.5607 406.759 18.5681C410.258 16.5594 414.195 15.5551 418.569 15.5551C421.452 15.5551 424.125 15.96 426.587 16.77C429.066 17.58 431.261 18.7625 433.172 20.3177C435.084 21.8566 436.639 23.7439 437.838 25.9794C439.053 28.2149 439.83 30.7744 440.17 33.6579ZM455.357 66H444.083L461.262 16.2354H474.821L491.976 66H480.701L468.236 27.6074H467.847L455.357 66ZM454.653 46.4392H481.285V54.6523H454.653V46.4392ZM464.324 11.4242L469.475 0.368112H479.049L471.638 11.4242H464.324ZM541.358 41.1177C541.358 46.5445 540.329 51.1613 538.272 54.9682C536.231 58.7751 533.445 61.6829 529.913 63.6916C526.398 65.6841 522.445 66.6804 518.055 66.6804C513.633 66.6804 509.664 65.676 506.149 63.6673C502.633 61.6586 499.855 58.7508 497.814 54.9439C495.773 51.137 494.752 46.5283 494.752 41.1177C494.752 35.6909 495.773 31.0741 497.814 27.2672C499.855 23.4604 502.633 20.5607 506.149 18.5681C509.664 16.5594 513.633 15.5551 518.055 15.5551C522.445 15.5551 526.398 16.5594 529.913 18.5681C533.445 20.5607 536.231 23.4604 538.272 27.2672C540.329 31.0741 541.358 35.6909 541.358 41.1177ZM530.691 41.1177C530.691 37.6024 530.164 34.638 529.111 32.2242C528.074 29.8105 526.608 27.98 524.713 26.7326C522.818 25.4853 520.598 24.8616 518.055 24.8616C515.512 24.8616 513.293 25.4853 511.397 26.7326C509.502 27.98 508.028 29.8105 506.975 32.2242C505.938 34.638 505.42 37.6024 505.42 41.1177C505.42 44.633 505.938 47.5975 506.975 50.0112C508.028 52.4249 509.502 54.2554 511.397 55.5028C513.293 56.7501 515.512 57.3738 518.055 57.3738C520.598 57.3738 522.818 56.7501 524.713 55.5028C526.608 54.2554 528.074 52.4249 529.111 50.0112C530.164 47.5975 530.691 44.633 530.691 41.1177Z" fill="#1B75BB"/>
<path d="M220.069 98.4361C220.069 102.054 219.244 104.511 217.596 105.807C216.907 106.351 216.163 106.727 215.363 106.936C214.563 107.128 213.514 107.224 212.218 107.224H206.119L206.047 106.383C206.111 106.335 206.439 106.231 207.031 106.071C207.624 105.911 207.976 105.831 208.088 105.831C207.992 99.5885 207.912 94.9467 207.848 91.9054C207.127 91.8094 206.423 91.6173 205.735 91.3292C205.767 90.785 205.807 90.4808 205.855 90.4168H211.905C213.57 90.4168 214.883 90.5689 215.843 90.873C216.819 91.1771 217.668 91.7374 218.388 92.5537C219.509 93.7862 220.069 95.747 220.069 98.4361ZM217.74 98.6281C217.74 96.4673 217.332 94.8426 216.515 93.7542C215.715 92.6497 214.362 92.0975 212.458 92.0975H210.009C209.945 95.0427 209.865 99.5405 209.769 105.591H212.29C214.482 105.591 215.939 105.103 216.659 104.126C217.38 103.134 217.74 101.301 217.74 98.6281ZM228.88 105.663C232.113 105.663 233.73 103.39 233.73 98.8442C233.73 94.2824 232.113 92.0015 228.88 92.0015C227.359 92.0015 226.119 92.2256 225.159 92.6737C224.294 94.3864 223.862 96.3632 223.862 98.6041C223.862 100.829 224.23 102.566 224.967 103.814C225.719 105.047 227.023 105.663 228.88 105.663ZM221.509 98.9163C221.509 96.0991 222.085 93.9302 223.238 92.4096C224.406 90.873 226.295 90.1047 228.904 90.1047C231.529 90.1047 233.378 90.809 234.45 92.2176C235.539 93.6101 236.083 95.723 236.083 98.5561C236.083 101.389 235.499 103.59 234.33 105.159C233.178 106.727 231.329 107.512 228.784 107.512C226.255 107.512 224.406 106.783 223.238 105.327C222.085 103.87 221.509 101.733 221.509 98.9163ZM240.44 90.921C240.728 90.825 241.512 90.7209 242.793 90.6089C244.073 90.4808 245.234 90.4168 246.274 90.4168C247.331 90.4168 248.147 90.4648 248.723 90.5609C248.739 90.6249 248.747 90.7049 248.747 90.801C248.747 90.881 248.699 91.0811 248.603 91.4012C248.523 91.7213 248.459 91.9294 248.411 92.0255C248.283 92.1535 247.923 92.2496 247.331 92.3136L251.917 105.591L254.197 105.783C254.197 106.231 254.061 106.711 253.789 107.224H248.267L248.195 106.383C248.563 106.191 249.099 106.023 249.804 105.879L248.579 102.446H241.88L240.752 105.591L242.697 105.783C242.697 106.231 242.561 106.711 242.289 107.224H236.766L236.694 106.383C237.319 106.159 237.983 105.983 238.687 105.855L243.345 92.2416C241.92 92.0815 240.92 91.8894 240.344 91.6653L240.44 90.921ZM246.682 97.0915L245.41 92.3856C245.314 92.3696 245.178 92.3616 245.002 92.3616L243.705 97.2596L242.313 100.909H248.147L246.682 97.0915ZM259.558 93.394L259.318 105.591L261.335 105.783C261.335 106.231 261.198 106.711 260.926 107.224H255.404L255.332 106.383C256.196 106.095 256.933 105.903 257.541 105.807C257.509 104.767 257.453 102.622 257.373 99.3725C257.309 96.1231 257.253 93.6101 257.205 91.8334C256.597 91.7374 255.876 91.5453 255.044 91.2572L255.116 90.4168H259.87L268.633 104.414L268.225 91.8334C267.633 91.7214 266.921 91.5293 266.088 91.2572L266.16 90.4168H272.163C272.435 90.929 272.571 91.4092 272.571 91.8574C271.771 91.9214 271.13 91.9534 270.65 91.9534L270.41 107.224H268.081L259.558 93.394ZM278.289 97.5957L286.116 97.6197C286.084 95.6669 286.036 93.7382 285.972 91.8334C285.38 91.7214 284.668 91.5293 283.835 91.2572L283.907 90.4168H289.91C290.182 90.929 290.318 91.4092 290.318 91.8574C289.518 91.9214 288.877 91.9534 288.397 91.9534L288.133 105.591L290.15 105.783C290.15 106.231 290.014 106.711 289.742 107.224H284.22L284.148 106.383C284.9 106.127 285.636 105.935 286.356 105.807L286.164 99.1324H278.241C278.209 102.014 278.193 104.166 278.193 105.591L280.21 105.783C280.21 106.231 280.074 106.711 279.802 107.224H274.28L274.207 106.383C274.96 106.127 275.696 105.935 276.416 105.807C276.256 99.5965 276.128 94.9387 276.032 91.8334C275.44 91.7214 274.728 91.5293 273.895 91.2572L273.967 90.4168H279.97C280.242 90.929 280.378 91.4092 280.378 91.8574C279.578 91.9214 278.937 91.9534 278.457 91.9534C278.409 93.1699 278.353 95.0507 278.289 97.5957ZM306.018 91.9054C305.938 94.5945 305.85 99.1564 305.754 105.591L307.771 105.783C307.771 106.231 307.635 106.711 307.363 107.224H301.84L301.768 106.383C302.697 106.047 303.433 105.855 303.977 105.807C303.817 99.6286 303.689 94.9947 303.593 91.9054H300.088L299.511 94.3544L298.119 94.2584C297.879 93.282 297.759 92.2896 297.759 91.2812C297.759 91.0891 297.775 90.801 297.807 90.4168H311.636C311.668 90.6249 311.684 90.945 311.684 91.3772C311.684 92.2416 311.572 93.1859 311.348 94.2104C310.996 94.3064 310.532 94.3544 309.956 94.3544L309.355 91.9054H306.018ZM317.305 97.5957L325.132 97.6197C325.1 95.6669 325.052 93.7382 324.988 91.8334C324.396 91.7214 323.684 91.5293 322.851 91.2572L322.923 90.4168H328.926C329.198 90.929 329.334 91.4092 329.334 91.8574C328.533 91.9214 327.893 91.9534 327.413 91.9534L327.149 105.591L329.166 105.783C329.166 106.231 329.03 106.711 328.758 107.224H323.235L323.163 106.383C323.916 106.127 324.652 105.935 325.372 105.807L325.18 99.1324H317.257C317.225 102.014 317.209 104.166 317.209 105.591L319.226 105.783C319.226 106.231 319.09 106.711 318.818 107.224H313.295L313.223 106.383C313.976 106.127 314.712 105.935 315.432 105.807C315.272 99.5965 315.144 94.9387 315.048 91.8334C314.456 91.7214 313.744 91.5293 312.911 91.2572L312.983 90.4168H318.986C319.258 90.929 319.394 91.4092 319.394 91.8574C318.593 91.9214 317.953 91.9534 317.473 91.9534C317.425 93.1699 317.369 95.0507 317.305 97.5957ZM339.373 107.512C338.461 107.512 337.669 107.44 336.996 107.296C336.324 107.152 335.676 106.887 335.052 106.503C333.755 105.735 333.083 104.206 333.035 101.917C333.003 99.6286 332.923 96.2672 332.795 91.8334C332.154 91.7053 331.434 91.5133 330.634 91.2572L330.706 90.4168H336.732C337.004 90.929 337.14 91.4092 337.14 91.8574C336.676 91.8894 336.012 91.9214 335.148 91.9534C335.116 93.8102 335.1 96.5953 335.1 100.309C335.1 102.31 335.468 103.702 336.204 104.487C336.956 105.271 338.021 105.663 339.397 105.663C339.99 105.663 340.502 105.599 340.934 105.471C341.382 105.343 341.822 105.095 342.254 104.727C343.119 103.99 343.551 102.502 343.551 100.261C343.551 100.245 343.479 97.4757 343.335 91.9534C342.086 91.5853 341.366 91.3532 341.174 91.2572L341.246 90.4168H347.2C347.457 91.0731 347.585 91.5453 347.585 91.8334C346.576 91.8334 345.928 91.8414 345.64 91.8574C345.608 93.1379 345.568 94.9547 345.52 97.3076C345.488 99.6446 345.464 101.181 345.448 101.917C345.4 103.742 344.839 105.135 343.767 106.095C342.695 107.04 341.23 107.512 339.373 107.512ZM363.135 91.9054C363.055 94.5945 362.967 99.1564 362.871 105.591L364.888 105.783C364.888 106.231 364.752 106.711 364.48 107.224H358.957L358.885 106.383C359.814 106.047 360.55 105.855 361.094 105.807C360.934 99.6286 360.806 94.9947 360.71 91.9054H357.205L356.628 94.3544L355.236 94.2584C354.996 93.282 354.876 92.2896 354.876 91.2812C354.876 91.0891 354.892 90.801 354.924 90.4168H368.753C368.785 90.6249 368.801 90.945 368.801 91.3772C368.801 92.2416 368.689 93.1859 368.465 94.2104C368.113 94.3064 367.649 94.3544 367.073 94.3544L366.472 91.9054H363.135ZM384.674 92.4096C385.202 92.3296 385.594 92.1375 385.85 91.8334C386.123 91.5293 386.307 91.1371 386.403 90.6569C386.499 90.1607 386.547 89.6005 386.547 88.9762H388.78L388.948 89.2403C388.852 89.8166 388.708 90.3608 388.516 90.873C388.323 91.3692 388.067 91.8254 387.747 92.2416C387.427 92.6417 387.019 92.9859 386.523 93.274C386.027 93.5621 385.41 93.7702 384.674 93.8982V101.173C384.674 102.358 384.45 103.43 384.002 104.39C383.554 105.335 382.849 106.087 381.889 106.647C380.944 107.192 379.704 107.464 378.167 107.464C375.99 107.464 374.326 106.887 373.173 105.735C372.037 104.567 371.469 103.03 371.469 101.125V90.0807H373.63V101.221C373.63 102.598 374.006 103.67 374.758 104.439C375.526 105.207 376.679 105.591 378.215 105.591C379.256 105.591 380.088 105.407 380.712 105.039C381.353 104.655 381.817 104.134 382.105 103.478C382.393 102.806 382.537 102.046 382.537 101.197V90.0807H384.674V92.4096ZM377.471 84.5584C377.647 84.9106 377.863 85.3108 378.119 85.7589C378.391 86.1911 378.672 86.6153 378.96 87.0314C379.264 87.4476 379.536 87.8078 379.776 88.1119V88.4H378.359C378.087 88.1759 377.783 87.9118 377.447 87.6077C377.111 87.2876 376.775 86.9594 376.439 86.6233C376.119 86.2711 375.822 85.935 375.55 85.6149C375.294 85.2947 375.094 85.0226 374.95 84.7985V84.5584H377.471ZM393.276 93.394L393.036 105.591L395.053 105.783C395.053 106.231 394.917 106.711 394.645 107.224H389.122L389.05 106.383C389.915 106.095 390.651 105.903 391.259 105.807C391.227 104.767 391.171 102.622 391.091 99.3725C391.027 96.1231 390.971 93.6101 390.923 91.8334C390.315 91.7374 389.595 91.5453 388.762 91.2572L388.834 90.4168H393.588L402.352 104.414L401.944 91.8334C401.351 91.7214 400.639 91.5293 399.807 91.2572L399.879 90.4168H405.881C406.153 90.929 406.289 91.4092 406.289 91.8574C405.489 91.9214 404.849 91.9534 404.369 91.9534L404.128 107.224H401.8L393.276 93.394ZM414.432 107.536C412.287 107.536 410.575 106.799 409.294 105.327C408.014 103.854 407.374 101.677 407.374 98.7962C407.374 95.899 407.926 93.7302 409.03 92.2896C410.151 90.833 411.887 90.1047 414.24 90.1047C416.609 90.1047 418.602 90.6969 420.219 91.8814C420.219 92.6977 420.107 93.6661 419.883 94.7866C419.53 94.8506 419.066 94.8826 418.49 94.8826L417.962 92.4096C417.049 92.1055 415.929 91.9534 414.6 91.9534C413.72 91.9534 412.512 92.1935 410.975 92.6737C410.879 92.8498 410.759 93.0979 410.615 93.418C410.471 93.7222 410.279 94.3784 410.039 95.3868C409.814 96.3792 409.702 97.3796 409.702 98.3881C409.702 103.302 411.295 105.759 414.48 105.759C416.161 105.759 417.458 105.455 418.37 104.847C418.434 102.83 418.474 101.317 418.49 100.309L416.161 99.7326L416.233 98.8923H421.755C422.027 99.4045 422.163 99.8847 422.163 100.333C421.539 100.429 420.867 100.493 420.147 100.525C420.243 103.214 420.291 105.071 420.291 106.095C419.891 106.367 419.09 106.679 417.89 107.032C416.705 107.368 415.553 107.536 414.432 107.536ZM434.097 93.394L433.857 105.591L435.874 105.783C435.874 106.231 435.738 106.711 435.466 107.224H429.944L429.872 106.383C430.736 106.095 431.472 105.903 432.08 105.807C432.048 104.767 431.992 102.622 431.912 99.3725C431.848 96.1231 431.792 93.6101 431.744 91.8334C431.136 91.7374 430.416 91.5453 429.583 91.2572L429.655 90.4168H434.409L443.173 104.414L442.765 91.8334C442.173 91.7214 441.46 91.5293 440.628 91.2572L440.7 90.4168H446.702C446.974 90.929 447.111 91.4092 447.111 91.8574C446.31 91.9214 445.67 91.9534 445.19 91.9534L444.95 107.224H442.621L434.097 93.394ZM452.829 97.5957L460.656 97.6197C460.624 95.6669 460.576 93.7382 460.512 91.8334C459.919 91.7214 459.207 91.5293 458.375 91.2572L458.447 90.4168H464.449C464.721 90.929 464.857 91.4092 464.857 91.8574C464.057 91.9214 463.417 91.9534 462.937 91.9534L462.673 105.591L464.689 105.783C464.689 106.231 464.553 106.711 464.281 107.224H458.759L458.687 106.383C459.439 106.127 460.176 105.935 460.896 105.807L460.704 99.1324H452.781C452.749 102.014 452.733 104.166 452.733 105.591L454.749 105.783C454.749 106.231 454.613 106.711 454.341 107.224H448.819L448.747 106.383C449.499 106.127 450.236 105.935 450.956 105.807C450.796 99.5965 450.668 94.9387 450.572 91.8334C449.979 91.7214 449.267 91.5293 448.435 91.2572L448.507 90.4168H454.509C454.781 90.929 454.917 91.4092 454.917 91.8574C454.117 91.9214 453.477 91.9534 452.997 91.9534C452.949 93.1699 452.893 95.0507 452.829 97.5957ZM469.447 90.921C469.735 90.825 470.519 90.7209 471.8 90.6089C473.08 90.4808 474.241 90.4168 475.281 90.4168C476.338 90.4168 477.154 90.4648 477.73 90.5609C477.746 90.6249 477.754 90.7049 477.754 90.801C477.754 90.881 477.706 91.0811 477.61 91.4012C477.53 91.7213 477.466 91.9294 477.418 92.0255C477.29 92.1535 476.93 92.2496 476.338 92.3136L480.923 105.591L483.204 105.783C483.204 106.231 483.068 106.711 482.796 107.224H477.274L477.202 106.383C477.57 106.191 478.106 106.023 478.811 105.879L477.586 102.446H470.887L469.759 105.591L471.704 105.783C471.704 106.231 471.568 106.711 471.295 107.224H465.773L465.701 106.383C466.325 106.159 466.99 105.983 467.694 105.855L472.352 92.2416C470.927 92.0815 469.927 91.8894 469.351 91.6653L469.447 90.921ZM475.689 97.0915L474.417 92.3856C474.321 92.3696 474.185 92.3616 474.009 92.3616L472.712 97.2596L471.32 100.909H477.154L475.689 97.0915ZM474.441 84.9426L477.826 87.6797C477.666 87.9038 477.402 88.1919 477.034 88.5441C477.018 88.5281 476.89 88.472 476.65 88.376C476.426 88.2639 476.209 88.1519 476.001 88.0399C475.377 87.7037 474.857 87.3436 474.441 86.9594C473.881 87.4876 473.136 87.9518 472.208 88.352C471.984 88.464 471.864 88.5281 471.848 88.5441C471.464 88.1919 471.199 87.9038 471.055 87.6797L474.441 84.9426ZM488.565 93.394L488.325 105.591L490.341 105.783C490.341 106.231 490.205 106.711 489.933 107.224H484.411L484.339 106.383C485.203 106.095 485.94 105.903 486.548 105.807C486.516 104.767 486.46 102.622 486.38 99.3725C486.316 96.1231 486.26 93.6101 486.212 91.8334C485.603 91.7374 484.883 91.5453 484.051 91.2572L484.123 90.4168H488.877L497.64 104.414L497.232 91.8334C496.64 91.7214 495.928 91.5293 495.095 91.2572L495.167 90.4168H501.17C501.442 90.929 501.578 91.4092 501.578 91.8574C500.778 91.9214 500.137 91.9534 499.657 91.9534L499.417 107.224H497.088L488.565 93.394ZM523.641 92.0015L518.695 107.224H516.198L510.7 91.8334C510.059 91.7053 509.339 91.5133 508.539 91.2572L508.611 90.4168H514.853C515.126 90.929 515.262 91.4092 515.262 91.8574C514.477 91.9054 513.757 91.9534 513.101 92.0015L517.35 104.703H517.47C517.823 103.502 519.159 99.2124 521.48 91.8334C520.84 91.7374 520.088 91.5453 519.223 91.2572L519.295 90.4168H525.322C525.594 90.929 525.73 91.4092 525.73 91.8574C524.994 91.9054 524.297 91.9534 523.641 92.0015ZM531.816 91.9534L531.575 105.591L533.592 105.783C533.592 106.231 533.456 106.711 533.184 107.224H527.662L527.59 106.383C528.326 106.127 529.054 105.935 529.775 105.807C529.743 104.767 529.687 102.622 529.607 99.3725C529.543 96.1231 529.487 93.6101 529.439 91.8334C528.798 91.7053 528.078 91.5133 527.278 91.2572L527.35 90.4168H533.352C533.624 90.929 533.76 91.4092 533.76 91.8574C532.944 91.9214 532.296 91.9534 531.816 91.9534ZM540.312 92.0735L540.192 97.8598H543.986L544.178 96.1311C544.626 96.1311 545.106 96.2672 545.618 96.5393V101.101L544.778 101.173C544.538 100.485 544.378 99.9087 544.298 99.4445H540.192C540.16 100.837 540.128 102.894 540.096 105.615H545.594L546.171 103.358L547.563 103.454C547.787 104.366 547.899 105.175 547.899 105.879C547.899 106.567 547.883 107.016 547.851 107.224H536.183L536.11 106.383C536.815 106.127 537.495 105.943 538.151 105.831C538.055 99.5885 537.975 94.9467 537.911 91.9054C537.559 91.8734 536.855 91.6813 535.798 91.3292L535.918 90.4168H547.491C547.523 90.6249 547.539 90.945 547.539 91.3772C547.539 92.2576 547.427 93.21 547.203 94.2344C546.851 94.3144 546.387 94.3544 545.81 94.3544L545.234 92.0735H540.312ZM541.849 84.9426L545.234 87.6797C545.138 87.8238 544.874 88.1119 544.442 88.5441C544.426 88.5281 544.298 88.472 544.058 88.376C543.834 88.2639 543.618 88.1519 543.409 88.0399C542.785 87.7037 542.265 87.3436 541.849 86.9594C541.289 87.4876 540.552 87.9518 539.64 88.352C539.4 88.464 539.272 88.5281 539.256 88.5441C538.872 88.1919 538.607 87.9038 538.463 87.6797L541.849 84.9426ZM554.591 93.394L554.351 105.591L556.368 105.783C556.368 106.231 556.232 106.711 555.96 107.224H550.438L550.366 106.383C551.23 106.095 551.966 105.903 552.575 105.807C552.543 104.767 552.487 102.622 552.407 99.3725C552.343 96.1231 552.286 93.6101 552.238 91.8334C551.63 91.7374 550.91 91.5453 550.078 91.2572L550.15 90.4168H554.904L563.667 104.414L563.259 91.8334C562.667 91.7214 561.954 91.5293 561.122 91.2572L561.194 90.4168H567.197C567.469 90.929 567.605 91.4092 567.605 91.8574C566.804 91.9214 566.164 91.9534 565.684 91.9534L565.444 107.224H563.115L554.591 93.394Z" fill="black"/>
</svg>
