<svg width="64" height="64" viewBox="0 0 64 64" fill="none" xmlns="http://www.w3.org/2000/svg">
<path fill-rule="evenodd" clip-rule="evenodd" d="M64 32C64 49.6731 49.6731 64 32 64C15.8672 64 2.52275 52.0616 0.319215 36.5374C3.4905 37.5394 6.86684 38.0798 10.3694 38.0798C22.7419 38.0798 33.5395 31.3367 39.2877 21.3251C35.1882 18.548 30.2427 16.9259 24.9182 16.9259C13.1458 16.9259 3.22555 24.8558 0.207641 35.6654C0.0704766 34.4626 0 33.2395 0 32C0 14.3269 14.3269 0 32 0C49.6731 0 64 14.3269 64 32ZM59.7635 30.4106C59.7635 44.5783 48.2783 56.0635 34.1106 56.0635C25.3664 56.0635 17.644 51.6885 13.0131 45.008C17.6059 45.1244 22.2869 44.0086 26.5485 41.5267C33.9079 37.2407 38.341 29.8563 39.158 21.9879C39.0955 21.9832 39.033 21.9787 38.9705 21.9743C41.1376 20.2623 43.018 18.2102 44.5344 15.9032C38.9924 12.4764 32.3904 10.636 25.3903 10.9816C21.7924 11.1592 18.3559 11.9011 15.1625 13.1176C19.8535 7.98047 26.6057 4.75769 34.1106 4.75769C48.2783 4.75769 59.7635 16.2429 59.7635 30.4106Z" fill="#1B75BB"/>
<path fill-rule="evenodd" clip-rule="evenodd" d="M10.5499 38.6095C22.9223 38.6095 33.7198 31.5295 39.4681 21.0175C35.3674 18.099 30.4196 16.394 25.0925 16.394C15.0752 16.394 6.39886 22.4229 2.17517 31.2135C5.90748 24.7539 13.5298 19.8066 22.791 18.6733C28.0784 18.0263 33.1472 18.7146 37.4875 20.4235C32.7548 29.0718 22.6923 35.7378 10.4113 37.2407C7.48538 37.5987 4.61099 37.642 1.83936 37.402C4.61596 38.1895 7.53623 38.6095 10.5499 38.6095Z" fill="#26A9E0"/>
</svg>
