<svg width="367" height="165" viewBox="0 0 367 165" fill="none" xmlns="http://www.w3.org/2000/svg">
<g clip-path="url(#clip0_521_745)">
<path fill-rule="evenodd" clip-rule="evenodd" d="M121 82.5C121 115.913 93.9132 143 60.5 143C30.001 143 4.77302 120.432 0.604368 91.0845C6.59915 92.9782 12.9814 93.9995 19.6022 93.9995C42.9943 93.9995 63.4087 81.2506 74.2762 62.3221C66.5242 57.0688 57.1713 54 47.1016 54C24.853 54 6.10338 68.981 0.389827 89.4059C0.132305 87.1395 0 84.8352 0 82.5C0 49.0868 27.0868 22 60.5 22C93.9132 22 121 49.0868 121 82.5ZM113 79.5C113 106.286 91.2858 128 64.5 128C47.9659 128 33.3643 119.726 24.6092 107.093C33.29 107.312 42.1371 105.202 50.1916 100.511C64.1049 92.4085 72.4863 78.448 74.0313 63.5724C73.9129 63.5634 73.7945 63.5548 73.676 63.5465C77.7761 60.309 81.3335 56.4277 84.2021 52.0639C73.7245 45.5856 61.2431 42.1064 48.0091 42.7597C41.2129 43.0952 34.7216 44.4958 28.6886 46.7918C37.5571 37.0874 50.3176 31 64.5 31C91.2858 31 113 52.7142 113 79.5Z" fill="#1B75BB"/>
<path fill-rule="evenodd" clip-rule="evenodd" d="M19.9339 94.9995C43.326 94.9995 63.7404 81.6132 74.6079 61.7382C66.8559 56.2222 57.5031 53 47.4334 53C28.5033 53 12.1062 64.3876 4.11659 80.9946C11.1761 68.7893 25.5825 59.4425 43.0847 57.3008C53.0797 56.0777 62.6615 57.3785 70.8666 60.6084C61.9188 76.9591 42.8944 89.5623 19.6755 92.4036C14.1277 93.0825 8.67794 93.1628 3.42383 92.7047C8.68579 94.2011 14.221 94.9995 19.9339 94.9995Z" fill="#26A9E0"/>
<path d="M155.861 62C154.457 62 153.755 61.2479 153.755 59.7436V21.1136C153.755 19.6093 154.457 18.8572 155.861 18.8572H160.313C162.038 18.8572 163.342 19.5592 164.224 20.9632L179.568 45.6033H179.779C179.678 44.3999 179.628 43.1965 179.628 41.9931V21.1136C179.628 19.6093 180.33 18.8572 181.734 18.8572H186.307C187.711 18.8572 188.413 19.6093 188.413 21.1136V59.7436C188.413 61.2479 187.711 62 186.307 62H182.155C180.43 62 179.127 61.298 178.244 59.894L162.6 34.8026H162.389C162.489 36.006 162.54 37.2094 162.54 38.4129V59.7436C162.54 61.2479 161.838 62 160.434 62H155.861ZM200.147 62C198.743 62 198.041 61.2479 198.041 59.7436V21.1136C198.041 19.6093 198.743 18.8572 200.147 18.8572H204.72C206.124 18.8572 206.826 19.6093 206.826 21.1136V35.8255H223.012V21.1136C223.012 19.6093 223.714 18.8572 225.118 18.8572H229.691C231.095 18.8572 231.797 19.6093 231.797 21.1136V59.7436C231.797 61.2479 231.095 62 229.691 62H225.118C223.714 62 223.012 61.2479 223.012 59.7436V43.2867H206.826V59.7436C206.826 61.2479 206.124 62 204.72 62H200.147ZM239.198 40.4286C239.198 33.5089 240.983 28.0133 244.553 23.9417C248.123 19.8701 253.218 17.8343 259.836 17.8343C266.455 17.8343 271.55 19.8701 275.12 23.9417C278.69 28.0133 280.475 33.5089 280.475 40.4286C280.475 47.3483 278.69 52.8439 275.12 56.9155C271.55 60.9871 266.455 63.0229 259.836 63.0229C253.218 63.0229 248.123 60.9871 244.553 56.9155C240.983 52.8439 239.198 47.3483 239.198 40.4286ZM248.584 40.4286C248.584 45.4429 249.477 49.2838 251.262 51.9514C253.067 54.5989 255.925 55.9227 259.836 55.9227C263.748 55.9227 266.596 54.5989 268.381 51.9514C270.186 49.2838 271.089 45.4429 271.089 40.4286C271.089 35.4143 270.186 31.5834 268.381 28.9359C266.596 26.2683 263.748 24.9345 259.836 24.9345C255.925 24.9345 253.067 26.2683 251.262 28.9359C249.477 31.5834 248.584 35.4143 248.584 40.4286ZM255.835 15.6681C254.491 15.6681 254.241 15.0263 255.083 13.7426L257.73 9.71116C258.352 8.76848 259.445 8.29714 261.01 8.29714H266.305C268.11 8.29714 268.351 8.90888 267.027 10.1324L262.273 14.5249C261.451 15.287 260.338 15.6681 258.934 15.6681H255.835ZM289.982 62C288.578 62 287.876 61.2479 287.876 59.7436V21.1136C287.876 19.6093 288.578 18.8572 289.982 18.8572H298.707C299.87 18.8572 300.703 19.6595 301.204 21.264L309.357 47.6492C309.718 48.7924 309.969 49.7351 310.11 50.4772C310.25 51.1993 310.37 52.0617 310.471 53.0646H310.651C310.751 52.0617 310.872 51.1993 311.012 50.4772C311.153 49.7351 311.403 48.7924 311.764 47.6492L319.918 21.264C320.419 19.6595 321.251 18.8572 322.415 18.8572H331.139C332.543 18.8572 333.245 19.6093 333.245 21.1136V59.7436C333.245 61.2479 332.543 62 331.139 62H326.566C325.162 62 324.46 61.2479 324.46 59.7436V34.8928C324.46 33.6894 324.511 32.486 324.611 31.2826H324.4L315.706 59.5631C315.204 61.1877 314.342 62 313.118 62H308.004C306.78 62 305.918 61.1877 305.416 59.5631L296.721 31.2826H296.511C296.611 32.486 296.661 33.6894 296.661 34.8928V59.7436C296.661 61.2479 295.959 62 294.555 62H289.982Z" fill="#1B75BB"/>
<path d="M211.296 84.3901C210.647 83.1669 211.084 82.2184 212.607 81.5444C214.055 80.8954 215.565 79.9843 217.138 78.8111C218.71 77.6379 219.996 76.4272 220.994 75.1791C222.117 73.7813 223.191 73.0823 224.214 73.0823H230.168C231.665 73.0823 232.414 73.8312 232.414 75.3289V124.753C232.414 126.251 231.665 127 230.168 127H224.177C222.679 127 221.93 126.251 221.93 124.753V89.1453C221.93 88.1468 221.98 87.1483 222.08 86.1499H221.93C221.156 87.1234 220.308 87.9596 219.384 88.6585C218.461 89.3575 217.524 89.9066 216.576 90.306C215.403 90.8053 214.517 90.4808 213.917 89.3325L211.296 84.3901ZM243.497 123.181C242.524 122.357 242.449 121.184 243.273 119.661L244.995 116.516C245.819 114.993 247.154 114.881 249.001 116.179C250.549 117.277 252.296 118.176 254.243 118.875C256.19 119.549 258.362 119.886 260.758 119.886C264.053 119.886 266.412 119 267.835 117.227C269.258 115.43 269.969 113.421 269.969 111.199C269.969 108.928 269.121 106.893 267.423 105.096C265.751 103.274 263.379 102.363 260.309 102.363H257.426C255.804 102.363 254.992 101.701 254.992 100.378V96.2594C254.992 94.8865 255.804 94.2001 257.426 94.2001H259.673C261.969 94.2001 263.991 93.4887 265.738 92.0658C267.511 90.643 268.397 88.8582 268.397 86.7115C268.397 85.0391 267.81 83.6537 266.637 82.5554C265.489 81.4321 263.604 80.8704 260.983 80.8704C258.512 80.8704 256.378 81.2324 254.58 81.9563C252.783 82.6802 251.36 83.5538 250.312 84.5773C248.814 86.05 247.529 85.9876 246.455 84.3901L244.284 81.2074C243.46 80.0092 243.709 78.7861 245.032 77.538C246.83 75.8156 249.151 74.5426 251.997 73.7188C254.842 72.8951 257.626 72.4832 260.347 72.4832C266.762 72.4832 271.53 73.7688 274.65 76.3398C277.77 78.886 279.33 82.0062 279.33 85.7006C279.33 88.4464 278.257 90.955 276.11 93.2266C273.963 95.4731 271.692 97.0208 269.295 97.8695V98.0192C272.141 98.7182 274.837 100.253 277.383 102.625C279.929 104.971 281.202 107.892 281.202 111.386C281.202 116.853 279.48 121.034 276.035 123.93C272.59 126.825 267.336 128.273 260.272 128.273C257.301 128.273 254.218 127.824 251.023 126.925C247.853 126.002 245.344 124.753 243.497 123.181Z" fill="#1B75BB"/>
<path d="M163.666 160H161.506V157.863H163.666V160ZM167.338 160V144.033H169.475C170.899 146.068 172.206 148.119 173.396 150.185C174.601 152.236 175.728 154.38 176.777 156.619L176.542 150.514V144.033H178.538V160H176.401C175.306 157.715 174.171 155.492 172.997 153.331C171.838 151.156 170.57 149.035 169.193 146.968L169.334 153.472V160H167.338ZM192.472 158.098V160H183.55V144.033H192.237V145.959H185.592V150.96H191.533V152.885H185.592V158.098H192.472ZM193.84 145.959V144.033H205.181V145.959H200.532V160H198.489V145.959H193.84ZM213.084 160V144.033H218.038C219.87 144.033 221.279 144.589 222.265 145.7C223.251 146.796 223.744 148.314 223.744 150.256V153.754C223.744 155.711 223.251 157.245 222.265 158.356C221.279 159.452 219.87 160 218.038 160H213.084ZM217.991 145.959H215.127V158.098H217.991C220.418 158.098 221.631 156.65 221.631 153.754V150.256C221.631 147.391 220.418 145.959 217.991 145.959ZM236.957 158.098V160H228.034V144.033H236.722V145.959H230.077V150.96H236.018V152.885H230.077V158.098H236.957ZM250.77 144.033L245.674 160H243.608L238.489 144.033H240.649L243.185 152.134L244.712 157.253L246.261 152.11L248.75 144.033H250.77ZM262.662 158.098V160H253.739V144.033H262.427V145.959H255.782V150.96H261.723V152.885H255.782V158.098H262.662ZM274.948 158.098V160H266.213V144.033H268.256V158.098H274.948ZM288.573 150.256V153.754C288.573 155.742 288.072 157.323 287.07 158.497C286.084 159.656 284.66 160.235 282.797 160.235C280.934 160.235 279.502 159.656 278.5 158.497C277.514 157.323 277.021 155.742 277.021 153.754V150.256C277.021 148.283 277.514 146.718 278.5 145.559C279.502 144.385 280.934 143.798 282.797 143.798C284.66 143.798 286.084 144.385 287.07 145.559C288.072 146.718 288.573 148.283 288.573 150.256ZM286.46 150.256C286.46 148.8 286.147 147.68 285.521 146.898C284.91 146.099 284.002 145.7 282.797 145.7C281.607 145.7 280.699 146.099 280.073 146.898C279.447 147.68 279.134 148.8 279.134 150.256V153.754C279.134 155.226 279.447 156.36 280.073 157.159C280.699 157.957 281.607 158.356 282.797 158.356C284.002 158.356 284.91 157.957 285.521 157.159C286.147 156.36 286.46 155.226 286.46 153.754V150.256ZM292.904 160V144.033H297.882C299.416 144.033 300.582 144.44 301.381 145.254C302.195 146.052 302.602 147.125 302.602 148.471V149.715C302.602 151.062 302.195 152.142 301.381 152.956C300.582 153.77 299.416 154.177 297.882 154.177H294.947V160H292.904ZM297.882 145.959H294.947V152.275H297.882C298.727 152.275 299.369 152.048 299.808 151.594C300.262 151.14 300.489 150.514 300.489 149.715V148.471C300.489 147.688 300.262 147.078 299.808 146.64C299.369 146.186 298.727 145.959 297.882 145.959ZM315.081 158.098V160H306.158V144.033H314.846V145.959H308.201V150.96H314.141V152.885H308.201V158.098H315.081ZM320.675 153.754V160H318.632V144.033H323.634C325.136 144.033 326.295 144.432 327.109 145.231C327.938 146.013 328.353 147.062 328.353 148.377V149.387C328.353 150.326 328.134 151.14 327.696 151.829C327.273 152.517 326.663 153.026 325.864 153.355C326.537 154.435 327.163 155.531 327.743 156.642C328.322 157.754 328.854 158.873 329.339 160H326.991C326.099 157.871 325.058 155.789 323.868 153.754H320.675ZM323.634 145.912H320.675V151.876H323.634C324.432 151.876 325.066 151.657 325.535 151.218C326.005 150.764 326.24 150.154 326.24 149.387V148.377C326.24 147.594 326.005 146.992 325.535 146.569C325.066 146.131 324.432 145.912 323.634 145.912Z" fill="#26A9E0"/>
<rect x="121.332" y="151" width="32" height="1" fill="#26A9E0"/>
<rect x="334.332" y="151" width="32" height="1" fill="#26A9E0"/>
</g>
<defs>
<clipPath id="clip0_521_745">
<rect width="366.332" height="165" fill="white"/>
</clipPath>
</defs>
</svg>
