<svg width="32" height="32" viewBox="0 0 32 32" fill="none" xmlns="http://www.w3.org/2000/svg">
<path fill-rule="evenodd" clip-rule="evenodd" d="M32 16C32 24.8366 24.8366 32 16 32C7.93289 32 1.2602 26.0298 0.159317 18.2667C1.74513 18.7677 3.43349 19.038 5.18497 19.038C11.3705 19.038 16.7687 15.6673 19.6431 10.6625C17.5936 9.27451 15.1213 8.46378 12.4596 8.46378C6.57303 8.46378 1.61262 12.4293 0.104042 17.8347C0.0353141 17.2326 0 16.6204 0 16C0 7.16344 7.16344 0 16 0C24.8366 0 32 7.16344 32 16ZM29.8802 15.2057C29.8802 22.2896 24.1376 28.0322 17.0537 28.0322C12.6813 28.0322 8.81991 25.8443 6.50448 22.5037C8.80173 22.5624 11.1432 22.0045 13.2748 20.7631C16.9546 18.62 19.1712 14.9276 19.5796 10.9933L19.4878 10.9866C20.5702 10.131 21.5095 9.10568 22.2671 7.95309C19.4959 6.23942 16.1947 5.31903 12.6944 5.49184C10.8946 5.58069 9.17567 5.95196 7.57834 6.56065C9.92391 3.99125 13.3006 2.37926 17.0537 2.37926C24.1376 2.37926 29.8802 8.12186 29.8802 15.2057Z" fill="#FF7A00"/>
<path fill-rule="evenodd" clip-rule="evenodd" d="M5.2776 19.3052C11.4638 19.3052 16.8626 15.7651 19.7367 10.5091C17.6863 9.04962 15.2122 8.19702 12.5485 8.19702C7.54651 8.19702 3.21328 11.2034 1.09831 15.5891C2.96809 12.3678 6.77387 9.90206 11.3961 9.33644C14.0397 9.01294 16.5741 9.35706 18.7441 10.2115C16.3778 14.5356 11.3465 17.8687 5.20602 18.6201C3.74301 18.7991 2.30578 18.8208 0.919922 18.7008C2.30894 19.0949 3.76988 19.3052 5.2776 19.3052Z" fill="#E0B726"/>
</svg>
