<svg width="400" height="250" viewBox="0 0 400 250" fill="none" xmlns="http://www.w3.org/2000/svg">
<rect x="0.5" y="0.5" width="399" height="249" rx="14.5" fill="white" stroke="#4FADB5"/>
<path fill-rule="evenodd" clip-rule="evenodd" d="M233 83C233 100.673 218.673 115 201 115C188.444 115 177.578 107.769 172.337 97.244C170.229 93.009 174.639 89.0798 179.369 89.0798C186.741 89.0798 193.554 86.6859 199.073 82.6332C205.402 77.9851 203.087 68.3591 195.245 67.9596C194.805 67.9372 194.363 67.9259 193.918 67.9259C183.441 67.9259 174.43 74.2075 170.447 83.2102C170.128 83.9308 169 83.7879 169 83C169 65.3269 183.327 51 201 51C218.673 51 233 65.3269 233 83ZM228.764 81.4106C228.764 95.5783 217.278 107.064 203.111 107.064C199.441 107.064 195.952 106.293 192.795 104.905C187.412 102.538 190.467 95.4863 195.549 92.5267C202.891 88.2504 207.321 80.8896 208.152 73.0412C208.156 73.012 208.134 72.9861 208.105 72.9839C208.057 72.9804 208.039 72.9203 208.076 72.8906C209.585 71.6858 210.953 70.3154 212.153 68.8085C212.957 67.8001 212.632 66.3359 211.49 65.7368C206.399 63.0654 200.549 61.6775 194.39 61.9816C191.766 62.1111 190.203 59.081 192.599 58.0032C195.807 56.5604 199.365 55.7577 203.111 55.7577C217.278 55.7577 228.764 67.2429 228.764 81.4106Z" fill="url(#paint0_linear_363_774)"/>
<path fill-rule="evenodd" clip-rule="evenodd" d="M179.55 89.6094C187.271 89.6094 194.379 86.8521 200.029 82.2241C205.908 77.4079 203.687 68.0954 196.112 67.4761C195.445 67.4217 194.772 67.3939 194.092 67.3939C184.075 67.3939 175.399 73.4228 171.175 82.2134C174.907 75.7538 182.53 70.8065 191.791 69.6732C199.668 68.7092 202.939 77.8138 196.307 82.172C191.563 85.2894 185.786 87.4605 179.411 88.2406C178.427 88.3611 178.325 89.6015 179.317 89.6086C179.394 89.6092 179.472 89.6094 179.55 89.6094Z" fill="#45EFA7"/>
<path d="M120.339 142.52C120.339 144.333 119.699 145.901 118.419 147.224C117.139 148.525 115.272 149.464 112.819 150.04C114.141 150.403 115.144 151 115.827 151.832C116.509 152.643 116.851 153.581 116.851 154.648C116.851 156.333 116.317 157.795 115.251 159.032C114.205 160.269 112.669 161.229 110.642 161.912C108.616 162.573 106.173 162.904 103.315 162.904C102.248 162.904 101.395 162.872 100.755 162.808C100.733 163.405 100.477 163.853 99.9865 164.152C99.4958 164.451 98.8665 164.6 98.0985 164.6C97.3305 164.6 96.7972 164.429 96.4985 164.088C96.2212 163.747 96.1038 163.245 96.1465 162.584C96.3385 159.597 96.7118 156.472 97.2665 153.208C97.8212 149.923 98.5252 146.755 99.3785 143.704C99.5278 143.171 99.8265 142.797 100.275 142.584C100.723 142.371 101.309 142.264 102.035 142.264C103.336 142.264 103.987 142.627 103.987 143.352C103.987 143.651 103.923 143.992 103.795 144.376C103.24 146.04 102.685 148.301 102.131 151.16C101.576 153.997 101.181 156.707 100.947 159.288C101.971 159.373 102.803 159.416 103.443 159.416C106.429 159.416 108.616 158.989 110.003 158.136C111.411 157.261 112.115 156.152 112.115 154.808C112.115 153.869 111.709 153.08 110.899 152.44C110.109 151.8 108.776 151.448 106.899 151.384C106.472 151.363 106.173 151.256 106.003 151.064C105.832 150.872 105.747 150.563 105.747 150.136C105.747 149.517 105.875 149.016 106.131 148.632C106.387 148.248 106.856 148.045 107.539 148.024C109.053 147.981 110.419 147.757 111.635 147.352C112.872 146.947 113.843 146.381 114.547 145.656C115.251 144.909 115.603 144.045 115.603 143.064C115.603 141.827 114.995 140.856 113.779 140.152C112.563 139.427 110.696 139.064 108.179 139.064C105.896 139.064 103.688 139.363 101.555 139.96C99.4212 140.536 97.6078 141.272 96.1145 142.168C95.4318 142.573 94.8558 142.776 94.3865 142.776C94.0025 142.776 93.7038 142.648 93.4905 142.392C93.2985 142.115 93.2025 141.773 93.2025 141.368C93.2025 140.835 93.3092 140.376 93.5225 139.992C93.7572 139.608 94.3012 139.171 95.1545 138.68C96.9465 137.656 99.0478 136.856 101.459 136.28C103.869 135.704 106.333 135.416 108.851 135.416C112.712 135.416 115.592 136.067 117.491 137.368C119.389 138.669 120.339 140.387 120.339 142.52ZM123.222 163.16C121.899 163.16 120.843 162.68 120.054 161.72C119.265 160.76 118.87 159.501 118.87 157.944C118.87 156.237 119.265 154.627 120.054 153.112C120.843 151.576 121.889 150.349 123.19 149.432C124.513 148.493 125.91 148.024 127.382 148.024C127.851 148.024 128.161 148.12 128.31 148.312C128.481 148.483 128.619 148.803 128.726 149.272C129.174 149.187 129.643 149.144 130.134 149.144C131.179 149.144 131.702 149.517 131.702 150.264C131.702 150.712 131.542 151.779 131.222 153.464C130.731 155.917 130.486 157.624 130.486 158.584C130.486 158.904 130.561 159.16 130.71 159.352C130.881 159.544 131.094 159.64 131.35 159.64C131.755 159.64 132.246 159.384 132.822 158.872C133.398 158.339 134.177 157.485 135.158 156.312C135.414 156.013 135.702 155.864 136.022 155.864C136.299 155.864 136.513 155.992 136.662 156.248C136.833 156.504 136.918 156.856 136.918 157.304C136.918 158.157 136.715 158.819 136.31 159.288C135.435 160.376 134.507 161.293 133.526 162.04C132.545 162.787 131.595 163.16 130.678 163.16C129.974 163.16 129.323 162.925 128.726 162.456C128.15 161.965 127.713 161.304 127.414 160.472C126.305 162.264 124.907 163.16 123.222 163.16ZM124.374 159.928C124.843 159.928 125.291 159.651 125.718 159.096C126.145 158.541 126.454 157.805 126.646 156.888L127.83 151C126.934 151.021 126.102 151.363 125.334 152.024C124.587 152.664 123.99 153.517 123.542 154.584C123.094 155.651 122.87 156.781 122.87 157.976C122.87 158.637 122.998 159.128 123.254 159.448C123.531 159.768 123.905 159.928 124.374 159.928ZM127.67 145.976C127.371 145.976 127.105 145.869 126.87 145.656C126.657 145.421 126.55 145.144 126.55 144.824C126.55 144.675 126.603 144.472 126.71 144.216L129.686 137.56C129.878 137.133 130.123 136.824 130.422 136.632C130.742 136.419 131.094 136.312 131.478 136.312C132.011 136.312 132.481 136.504 132.886 136.888C133.313 137.272 133.526 137.752 133.526 138.328C133.526 138.925 133.291 139.523 132.822 140.12L128.694 145.432C128.417 145.795 128.075 145.976 127.67 145.976ZM140.429 163.16C138.339 163.16 136.707 162.573 135.533 161.4C134.381 160.205 133.805 158.637 133.805 156.696C133.805 154.968 134.147 153.453 134.829 152.152C135.512 150.851 136.397 149.848 137.485 149.144C138.573 148.44 139.715 148.088 140.909 148.088C142.083 148.088 142.989 148.44 143.629 149.144C144.291 149.827 144.621 150.712 144.621 151.8C144.621 152.696 144.419 153.453 144.013 154.072C143.629 154.691 143.117 155 142.477 155C142.072 155 141.741 154.904 141.485 154.712C141.251 154.52 141.133 154.253 141.133 153.912C141.133 153.763 141.155 153.592 141.197 153.4C141.24 153.208 141.272 153.069 141.293 152.984C141.4 152.664 141.453 152.365 141.453 152.088C141.453 151.811 141.379 151.597 141.229 151.448C141.101 151.299 140.909 151.224 140.653 151.224C140.163 151.224 139.704 151.448 139.277 151.896C138.851 152.323 138.509 152.909 138.253 153.656C137.997 154.403 137.869 155.224 137.869 156.12C137.869 158.595 138.947 159.832 141.101 159.832C141.976 159.832 142.915 159.544 143.917 158.968C144.941 158.371 145.944 157.485 146.925 156.312C147.181 156.013 147.469 155.864 147.789 155.864C148.067 155.864 148.28 155.992 148.429 156.248C148.6 156.504 148.685 156.856 148.685 157.304C148.685 158.115 148.483 158.776 148.077 159.288C147.075 160.525 145.869 161.485 144.461 162.168C143.075 162.829 141.731 163.16 140.429 163.16ZM157.427 148.088C158.109 148.088 158.621 148.269 158.963 148.632C159.325 148.973 159.507 149.485 159.507 150.168C159.507 150.723 159.389 151.768 159.155 153.304C158.941 154.605 158.771 155.843 158.643 157.016C158.515 158.168 158.451 159.459 158.451 160.888C158.451 161.699 158.28 162.285 157.939 162.648C157.619 162.989 157.085 163.16 156.339 163.16C155.635 163.16 155.123 162.979 154.803 162.616C154.483 162.253 154.323 161.709 154.323 160.984C154.323 160.131 154.472 158.723 154.771 156.76C155.027 155.053 155.155 153.965 155.155 153.496C155.155 153.155 155.037 152.984 154.803 152.984C154.525 152.984 154.131 153.347 153.619 154.072C153.107 154.776 152.595 155.715 152.083 156.888C151.571 158.061 151.155 159.299 150.835 160.6C150.6 161.603 150.323 162.285 150.003 162.648C149.704 162.989 149.224 163.16 148.562 163.16C147.901 163.16 147.411 162.925 147.091 162.456C146.792 161.965 146.589 161.219 146.483 160.216C146.376 159.213 146.323 157.741 146.323 155.8C146.323 152.515 146.653 149.091 147.315 145.528C147.997 141.965 148.989 138.979 150.291 136.568C151.613 134.136 153.192 132.92 155.027 132.92C156.008 132.92 156.797 133.347 157.395 134.2C158.013 135.032 158.323 136.12 158.323 137.464C158.323 139.619 157.693 141.859 156.435 144.184C155.176 146.488 153.128 149.187 150.291 152.28C150.227 153.389 150.195 154.531 150.195 155.704C150.899 153.891 151.677 152.419 152.531 151.288C153.405 150.136 154.259 149.315 155.091 148.824C155.944 148.333 156.723 148.088 157.427 148.088ZM154.355 136.088C153.971 136.088 153.544 136.643 153.075 137.752C152.605 138.84 152.147 140.323 151.699 142.2C151.272 144.056 150.92 146.083 150.643 148.28C151.965 146.723 153.053 145.027 153.907 143.192C154.781 141.357 155.219 139.693 155.219 138.2C155.219 137.517 155.144 136.995 154.995 136.632C154.845 136.269 154.632 136.088 154.355 136.088ZM199.887 155.864C200.164 155.864 200.377 155.992 200.527 156.248C200.697 156.504 200.783 156.856 200.783 157.304C200.783 158.136 200.58 158.797 200.175 159.288C198.063 161.869 195.812 163.16 193.423 163.16C191.353 163.16 189.7 162.36 188.463 160.76C187.225 159.16 186.607 156.867 186.607 153.88C186.607 153.155 186.639 152.429 186.703 151.704C185.295 151.96 183.759 152.152 182.095 152.28C180.985 152.365 180.228 152.419 179.823 152.44C179.396 154.616 178.799 157.283 178.031 160.44C177.583 162.296 176.729 163.224 175.471 163.224C174.105 163.224 173.423 162.605 173.423 161.368C173.423 161.091 173.476 160.707 173.583 160.216C174.308 157.293 174.884 154.819 175.311 152.792L173.775 152.856C173.071 152.856 172.559 152.739 172.239 152.504C171.919 152.248 171.759 151.843 171.759 151.288C171.759 150.584 171.961 150.072 172.367 149.752C172.772 149.411 173.444 149.219 174.383 149.176L176.079 149.112C176.633 146.104 176.911 143.811 176.911 142.232C176.911 141.229 176.761 140.547 176.463 140.184C176.164 139.821 175.769 139.64 175.279 139.64C173.785 139.64 172.1 140.888 170.223 143.384C169.945 143.747 169.636 143.928 169.295 143.928C168.996 143.928 168.74 143.789 168.527 143.512C168.313 143.235 168.207 142.883 168.207 142.456C168.207 141.795 168.473 141.091 169.007 140.344C169.945 139.043 171.129 137.976 172.559 137.144C173.988 136.291 175.439 135.864 176.911 135.864C178.297 135.864 179.364 136.344 180.111 137.304C180.879 138.243 181.263 139.715 181.263 141.72C181.263 143.491 181.007 145.891 180.495 148.92L183.631 148.76C184.975 148.696 186.127 148.589 187.087 148.44C187.471 146.093 188.057 143.896 188.847 141.848C189.636 139.8 190.617 138.136 191.791 136.856C192.964 135.576 194.276 134.936 195.727 134.936C196.793 134.936 197.636 135.363 198.255 136.216C198.873 137.048 199.183 138.147 199.183 139.512C199.183 144.803 196.484 148.472 191.087 150.52C191.023 151.373 190.991 152.259 190.991 153.176C190.991 155.416 191.268 157.005 191.823 157.944C192.377 158.883 193.156 159.352 194.159 159.352C195.033 159.352 195.833 159.128 196.559 158.68C197.284 158.211 198.105 157.421 199.023 156.312C199.279 156.013 199.567 155.864 199.887 155.864ZM195.567 137.72C195.097 137.72 194.596 138.147 194.063 139C193.551 139.853 193.06 141.016 192.591 142.488C192.121 143.96 191.748 145.571 191.471 147.32C193.177 146.616 194.436 145.613 195.247 144.312C196.057 143.011 196.463 141.336 196.463 139.288C196.463 138.797 196.377 138.413 196.207 138.136C196.036 137.859 195.823 137.72 195.567 137.72ZM218.669 153.176C218.946 153.176 219.159 153.315 219.309 153.592C219.458 153.869 219.533 154.221 219.533 154.648C219.533 155.672 219.223 156.28 218.605 156.472C217.325 156.92 215.917 157.176 214.381 157.24C213.975 159.032 213.175 160.472 211.981 161.56C210.786 162.627 209.431 163.16 207.917 163.16C206.637 163.16 205.538 162.851 204.621 162.232C203.725 161.613 203.042 160.792 202.573 159.768C202.103 158.744 201.868 157.635 201.868 156.44C201.868 154.819 202.178 153.379 202.797 152.12C203.415 150.84 204.269 149.848 205.357 149.144C206.445 148.419 207.65 148.056 208.973 148.056C210.594 148.056 211.895 148.621 212.877 149.752C213.879 150.861 214.466 152.237 214.637 153.88C215.639 153.816 216.834 153.603 218.221 153.24C218.391 153.197 218.541 153.176 218.669 153.176ZM208.173 159.768C208.855 159.768 209.442 159.491 209.933 158.936C210.445 158.381 210.786 157.581 210.957 156.536C210.295 156.088 209.783 155.501 209.421 154.776C209.079 154.051 208.909 153.283 208.909 152.472C208.909 152.131 208.941 151.789 209.005 151.448H208.845C207.991 151.448 207.277 151.864 206.701 152.696C206.146 153.507 205.869 154.659 205.869 156.152C205.869 157.325 206.093 158.221 206.541 158.84C207.01 159.459 207.554 159.768 208.173 159.768ZM209.26 145.976C208.962 145.976 208.695 145.869 208.461 145.656C208.247 145.421 208.141 145.144 208.141 144.824C208.141 144.675 208.194 144.472 208.301 144.216L211.277 137.56C211.469 137.133 211.714 136.824 212.013 136.632C212.333 136.419 212.685 136.312 213.069 136.312C213.602 136.312 214.071 136.504 214.477 136.888C214.903 137.272 215.117 137.752 215.117 138.328C215.117 138.925 214.882 139.523 214.413 140.12L210.285 145.432C210.007 145.795 209.666 145.976 209.26 145.976ZM220.466 163.16C219.25 163.16 218.258 162.68 217.49 161.72C216.743 160.76 216.37 159.501 216.37 157.944C216.37 156.237 216.765 154.627 217.554 153.112C218.343 151.576 219.389 150.349 220.69 149.432C222.013 148.493 223.41 148.024 224.882 148.024C225.351 148.024 225.661 148.12 225.81 148.312C225.981 148.483 226.119 148.803 226.226 149.272C226.631 149.187 227.079 149.144 227.57 149.144C228.082 149.144 228.477 149.272 228.754 149.528C229.031 149.784 229.17 150.147 229.17 150.616C229.17 151.107 229.063 151.96 228.85 153.176C228.615 154.477 228.434 155.725 228.306 156.92C228.178 158.093 228.114 159.416 228.114 160.888C228.114 161.699 227.943 162.285 227.602 162.648C227.282 162.989 226.749 163.16 226.002 163.16C225.277 163.16 224.733 162.989 224.37 162.648C224.029 162.285 223.858 161.709 223.858 160.92L223.89 160.408C223.229 162.243 222.087 163.16 220.466 163.16ZM221.714 159.928C222.311 159.928 222.855 159.512 223.346 158.68C223.837 157.848 224.274 156.365 224.658 154.232L225.266 151C224.391 151.021 223.581 151.363 222.834 152.024C222.087 152.664 221.49 153.517 221.042 154.584C220.594 155.651 220.37 156.781 220.37 157.976C220.37 158.616 220.487 159.107 220.722 159.448C220.978 159.768 221.309 159.928 221.714 159.928ZM264.391 155.864C264.668 155.864 264.882 155.992 265.031 156.248C265.202 156.504 265.287 156.856 265.287 157.304C265.287 158.136 265.084 158.797 264.679 159.288C263.634 160.525 262.599 161.485 261.575 162.168C260.551 162.829 259.41 163.16 258.151 163.16C256.252 163.16 254.812 162.595 253.831 161.464C252.871 160.333 252.092 158.68 251.495 156.504L250.407 152.536L242.855 161.88C242.428 162.413 241.991 162.765 241.543 162.936C241.095 163.085 240.572 163.16 239.975 163.16C239.378 163.16 238.876 163.053 238.471 162.84C238.087 162.605 237.895 162.285 237.895 161.88C237.895 161.347 238.204 160.739 238.823 160.056L249.191 148.248L248.167 144.504C247.676 142.755 247.132 141.528 246.535 140.824C245.938 140.12 245.255 139.768 244.487 139.768C243.356 139.768 242.034 140.589 240.519 142.232C240.263 142.509 239.975 142.648 239.655 142.648C239.335 142.648 239.058 142.531 238.823 142.296C238.61 142.04 238.503 141.72 238.503 141.336C238.503 140.696 238.812 140.003 239.431 139.256C240.306 138.232 241.255 137.411 242.279 136.792C243.303 136.173 244.519 135.864 245.927 135.864C247.442 135.864 248.69 136.344 249.671 137.304C250.652 138.243 251.431 139.768 252.007 141.88L252.647 144.12L258.247 137.304C258.674 136.792 259.111 136.429 259.559 136.216C260.007 136.003 260.551 135.896 261.191 135.896C261.767 135.896 262.215 136.003 262.535 136.216C262.876 136.429 263.047 136.728 263.047 137.112C263.047 137.624 262.759 138.211 262.183 138.872L253.863 148.472L255.687 155C256.007 156.131 256.295 156.995 256.551 157.592C256.807 158.189 257.116 158.637 257.479 158.936C257.863 159.213 258.364 159.352 258.983 159.352C259.644 159.352 260.327 159.117 261.031 158.648C261.756 158.179 262.588 157.4 263.527 156.312C263.783 156.013 264.071 155.864 264.391 155.864ZM266.316 163.16C264.993 163.16 263.937 162.68 263.148 161.72C262.358 160.76 261.964 159.501 261.964 157.944C261.964 156.237 262.358 154.627 263.148 153.112C263.937 151.576 264.982 150.349 266.284 149.432C267.606 148.493 269.004 148.024 270.476 148.024C270.945 148.024 271.254 148.12 271.404 148.312C271.574 148.483 271.713 148.803 271.82 149.272C272.268 149.187 272.737 149.144 273.228 149.144C274.273 149.144 274.796 149.517 274.796 150.264C274.796 150.712 274.636 151.779 274.316 153.464C273.825 155.917 273.58 157.624 273.58 158.584C273.58 158.904 273.654 159.16 273.804 159.352C273.974 159.544 274.188 159.64 274.444 159.64C274.849 159.64 275.34 159.384 275.916 158.872C276.492 158.339 277.27 157.485 278.252 156.312C278.508 156.013 278.796 155.864 279.116 155.864C279.393 155.864 279.606 155.992 279.756 156.248C279.926 156.504 280.012 156.856 280.012 157.304C280.012 158.157 279.809 158.819 279.404 159.288C278.529 160.376 277.601 161.293 276.62 162.04C275.638 162.787 274.689 163.16 273.772 163.16C273.068 163.16 272.417 162.925 271.82 162.456C271.244 161.965 270.806 161.304 270.508 160.472C269.398 162.264 268.001 163.16 266.316 163.16ZM267.468 159.928C267.937 159.928 268.385 159.651 268.812 159.096C269.238 158.541 269.548 157.805 269.74 156.888L270.924 151C270.028 151.021 269.196 151.363 268.428 152.024C267.681 152.664 267.084 153.517 266.636 154.584C266.188 155.651 265.964 156.781 265.964 157.976C265.964 158.637 266.092 159.128 266.348 159.448C266.625 159.768 266.998 159.928 267.468 159.928ZM279.683 163.16C278.872 163.16 278.296 162.733 277.955 161.88C277.635 161.027 277.475 159.661 277.475 157.784C277.475 155.011 277.87 152.376 278.659 149.88C278.851 149.261 279.16 148.813 279.587 148.536C280.035 148.237 280.654 148.088 281.443 148.088C281.87 148.088 282.168 148.141 282.339 148.248C282.51 148.355 282.595 148.557 282.595 148.856C282.595 149.197 282.435 149.965 282.115 151.16C281.902 152.013 281.731 152.76 281.603 153.4C281.475 154.04 281.368 154.829 281.283 155.768C281.987 153.933 282.776 152.44 283.651 151.288C284.526 150.136 285.379 149.315 286.211 148.824C287.064 148.333 287.843 148.088 288.547 148.088C289.934 148.088 290.627 148.781 290.627 150.168C290.627 151 290.392 152.504 289.923 154.68C289.518 156.536 289.315 157.763 289.315 158.36C289.315 159.213 289.624 159.64 290.243 159.64C290.67 159.64 291.171 159.384 291.747 158.872C292.344 158.339 293.134 157.485 294.115 156.312C294.371 156.013 294.659 155.864 294.979 155.864C295.256 155.864 295.47 155.992 295.619 156.248C295.79 156.504 295.875 156.856 295.875 157.304C295.875 158.157 295.672 158.819 295.267 159.288C294.35 160.419 293.358 161.347 292.291 162.072C291.246 162.797 290.051 163.16 288.707 163.16C287.619 163.16 286.798 162.851 286.243 162.232C285.688 161.592 285.411 160.675 285.411 159.48C285.411 158.883 285.56 157.816 285.859 156.28C286.136 154.936 286.275 154.008 286.275 153.496C286.275 153.155 286.158 152.984 285.923 152.984C285.646 152.984 285.251 153.347 284.739 154.072C284.248 154.776 283.736 155.715 283.203 156.888C282.691 158.061 282.275 159.299 281.955 160.6C281.72 161.603 281.443 162.285 281.123 162.648C280.824 162.989 280.344 163.16 279.683 163.16ZM304.614 148.088C305.297 148.088 305.809 148.269 306.15 148.632C306.513 148.973 306.694 149.485 306.694 150.168C306.694 150.723 306.577 151.768 306.342 153.304C306.129 154.605 305.958 155.843 305.83 157.016C305.702 158.168 305.638 159.459 305.638 160.888C305.638 161.699 305.467 162.285 305.126 162.648C304.806 162.989 304.273 163.16 303.526 163.16C302.822 163.16 302.31 162.979 301.99 162.616C301.67 162.253 301.51 161.709 301.51 160.984C301.51 160.131 301.659 158.723 301.958 156.76C302.214 155.053 302.342 153.965 302.342 153.496C302.342 153.155 302.225 152.984 301.99 152.984C301.713 152.984 301.318 153.347 300.806 154.072C300.294 154.776 299.782 155.715 299.27 156.888C298.758 158.061 298.342 159.299 298.022 160.6C297.787 161.603 297.51 162.285 297.19 162.648C296.891 162.989 296.411 163.16 295.75 163.16C295.089 163.16 294.598 162.925 294.278 162.456C293.979 161.965 293.777 161.219 293.67 160.216C293.563 159.213 293.51 157.741 293.51 155.8C293.51 152.515 293.841 149.091 294.502 145.528C295.185 141.965 296.177 138.979 297.478 136.568C298.801 134.136 300.379 132.92 302.214 132.92C303.195 132.92 303.985 133.347 304.582 134.2C305.201 135.032 305.51 136.12 305.51 137.464C305.51 139.619 304.881 141.859 303.622 144.184C302.363 146.488 300.315 149.187 297.478 152.28C297.414 153.389 297.382 154.531 297.382 155.704C298.086 153.891 298.865 152.419 299.718 151.288C300.593 150.136 301.446 149.315 302.278 148.824C303.131 148.333 303.91 148.088 304.614 148.088ZM301.542 136.088C301.158 136.088 300.731 136.643 300.262 137.752C299.793 138.84 299.334 140.323 298.886 142.2C298.459 144.056 298.107 146.083 297.83 148.28C299.153 146.723 300.241 145.027 301.094 143.192C301.969 141.357 302.406 139.693 302.406 138.2C302.406 137.517 302.331 136.995 302.182 136.632C302.033 136.269 301.819 136.088 301.542 136.088Z" fill="url(#paint1_linear_363_774)"/>
<path d="M97.4848 193.928C99.0741 193.928 99.8688 193.283 99.8688 191.992C99.8688 191.363 99.4794 190.829 98.7008 190.392C98.3488 190.189 97.9594 189.997 97.5328 189.816C97.1168 189.635 96.6954 189.437 96.2688 189.224C95.8421 189.011 95.4528 188.781 95.1008 188.536C94.7594 188.291 94.4768 187.981 94.2528 187.608C94.0394 187.235 93.9328 186.813 93.9328 186.344C93.9328 185.576 94.2421 184.925 94.8608 184.392C95.4901 183.848 96.3488 183.576 97.4368 183.576C98.5248 183.576 99.6714 183.907 100.877 184.568C100.877 185.176 100.802 185.939 100.653 186.856C100.418 186.888 100.109 186.904 99.7248 186.904L99.2448 185.048C99.1168 184.984 98.8608 184.92 98.4768 184.856C98.1034 184.792 97.7728 184.76 97.4848 184.76C96.8661 184.76 96.3861 184.893 96.0448 185.16C95.7034 185.416 95.5328 185.779 95.5328 186.248C95.5328 186.707 95.7301 187.123 96.1248 187.496C96.5301 187.859 97.0154 188.173 97.5808 188.44C98.1568 188.696 98.7274 188.963 99.2928 189.24C99.8688 189.517 100.354 189.88 100.749 190.328C101.154 190.765 101.357 191.277 101.357 191.864C101.357 192.931 100.999 193.757 100.285 194.344C99.5701 194.92 98.6368 195.208 97.4848 195.208C96.8554 195.208 96.1728 195.112 95.4368 194.92C94.7114 194.717 94.1088 194.461 93.6288 194.152C93.6501 193.437 93.7301 192.611 93.8688 191.672C94.1034 191.64 94.4128 191.624 94.7968 191.624L95.1328 193.544C95.3674 193.64 95.7194 193.731 96.1888 193.816C96.6688 193.891 97.1008 193.928 97.4848 193.928ZM110.529 186.28C111.574 186.28 112.347 186.509 112.849 186.968C113.35 187.427 113.601 188.157 113.601 189.16V195H112.577L112.305 193.784H112.241C111.995 194.093 111.739 194.355 111.473 194.568C111.217 194.771 110.918 194.92 110.577 195.016C110.246 195.112 109.841 195.16 109.361 195.16C108.849 195.16 108.385 195.069 107.969 194.888C107.563 194.707 107.243 194.429 107.009 194.056C106.774 193.672 106.657 193.192 106.657 192.616C106.657 191.763 106.993 191.107 107.665 190.648C108.337 190.179 109.371 189.923 110.769 189.88L112.225 189.832V189.32C112.225 188.605 112.07 188.109 111.761 187.832C111.451 187.555 111.014 187.416 110.449 187.416C110.001 187.416 109.574 187.485 109.169 187.624C108.763 187.752 108.385 187.901 108.033 188.072L107.601 187.016C107.974 186.813 108.417 186.643 108.929 186.504C109.441 186.355 109.974 186.28 110.529 186.28ZM110.945 190.856C109.878 190.899 109.137 191.069 108.721 191.368C108.315 191.667 108.113 192.088 108.113 192.632C108.113 193.112 108.257 193.464 108.545 193.688C108.843 193.912 109.222 194.024 109.681 194.024C110.406 194.024 111.009 193.827 111.489 193.432C111.969 193.027 112.209 192.408 112.209 191.576V190.808L110.945 190.856ZM110.401 197.816C110.177 197.816 109.979 197.741 109.809 197.592C109.649 197.443 109.569 197.219 109.569 196.92C109.569 196.611 109.649 196.381 109.809 196.232C109.979 196.093 110.177 196.024 110.401 196.024C110.625 196.024 110.817 196.093 110.977 196.232C111.147 196.381 111.233 196.611 111.233 196.92C111.233 197.219 111.147 197.443 110.977 197.592C110.817 197.741 110.625 197.816 110.401 197.816ZM123.113 195.192C121.833 195.192 120.879 194.835 120.249 194.12C119.62 193.395 119.305 192.365 119.305 191.032C119.305 188.131 120.596 186.68 123.177 186.68C123.593 186.68 124.025 186.744 124.473 186.872C124.921 186.989 125.273 187.123 125.529 187.272C125.497 188.264 125.396 188.968 125.225 189.384C125.033 189.437 124.879 189.464 124.761 189.464H124.489C124.436 189.464 124.372 189.459 124.297 189.448L123.897 187.688C123.545 187.656 123.343 187.64 123.289 187.64C122.521 187.64 121.908 187.875 121.449 188.344C121.001 188.813 120.777 189.603 120.777 190.712C120.777 191.821 120.948 192.664 121.289 193.24C121.641 193.816 122.313 194.104 123.305 194.104C123.775 194.104 124.511 193.88 125.513 193.432C125.716 193.709 125.823 193.955 125.833 194.168C125.289 194.488 124.756 194.739 124.233 194.92C123.711 195.101 123.337 195.192 123.113 195.192ZM132.932 183.112C133.263 183.112 133.498 183.123 133.636 183.144C133.636 183.336 133.604 183.587 133.54 183.896C133.487 184.195 133.45 184.371 133.428 184.424C133.428 184.659 133.418 185.144 133.396 185.88C133.375 186.616 133.364 187.187 133.364 187.592C133.823 187.347 134.276 187.133 134.724 186.952C135.183 186.771 135.471 186.68 135.588 186.68C136.612 186.68 137.354 186.936 137.812 187.448C138.271 187.949 138.5 188.717 138.5 189.752C138.5 190.051 138.458 191.437 138.372 193.912L139.716 194.04C139.716 194.339 139.626 194.659 139.444 195H135.764L135.716 194.44C136.207 194.269 136.687 194.141 137.156 194.056C137.092 191.261 137.034 189.709 136.98 189.4C136.938 189.08 136.863 188.803 136.756 188.568C136.65 188.333 136.49 188.168 136.276 188.072C136.063 187.976 135.78 187.928 135.428 187.928C134.703 187.928 134.01 188.099 133.348 188.44L133.252 193.912L134.596 194.04C134.596 194.339 134.506 194.659 134.324 195H130.644L130.596 194.44C131.087 194.269 131.567 194.141 132.036 194.056L131.844 184.376C131.258 184.344 130.788 184.28 130.436 184.184L130.5 183.352C131.044 183.192 131.855 183.112 132.932 183.112ZM156.307 190.488C156.329 190.659 156.339 190.803 156.339 190.92L156.307 191.48C155.753 191.533 155.23 191.56 154.739 191.56L152.595 191.48C152.574 191.405 152.563 191.267 152.563 191.064L152.595 190.488C153.15 190.435 153.673 190.408 154.163 190.408L156.307 190.488ZM175.042 185.08C174.701 184.973 174.247 184.92 173.682 184.92H172.354L172.306 188.952L173.522 188.936C174.311 188.925 174.941 188.765 175.41 188.456C175.879 188.147 176.114 187.56 176.114 186.696C176.114 185.821 175.757 185.283 175.042 185.08ZM172.29 189.976L172.242 193.928L173.57 194.04C173.57 194.339 173.479 194.659 173.298 195H169.618L169.57 194.44C170.018 194.28 170.477 194.157 170.946 194.072C170.882 190.019 170.829 186.925 170.786 184.792C170.487 184.749 170.018 184.621 169.378 184.408C169.378 184.269 169.405 184.067 169.458 183.8H173.058C175.01 183.8 176.279 184.04 176.866 184.52C177.442 184.979 177.73 185.699 177.73 186.68C177.73 188.333 176.823 189.405 175.01 189.896L177.746 193.944L179.074 194.056C179.074 194.344 178.983 194.659 178.802 195H176.834L173.474 189.976H172.29ZM189.734 183.32C189.734 183.725 189.611 184.04 189.366 184.264C189.121 184.477 188.811 184.627 188.438 184.712L188.358 185.56H187.494L187.382 184.2C187.766 184.136 188.07 184.045 188.294 183.928C188.529 183.8 188.646 183.613 188.646 183.368C188.646 183.112 188.545 182.941 188.342 182.856C188.15 182.771 187.905 182.728 187.606 182.728C187.467 182.728 187.323 182.733 187.174 182.744C187.035 182.755 186.923 182.771 186.838 182.792V181.96C186.934 181.928 187.051 181.907 187.19 181.896C187.339 181.875 187.515 181.864 187.718 181.864C188.358 181.864 188.854 181.981 189.206 182.216C189.558 182.451 189.734 182.819 189.734 183.32ZM187.91 186.264C188.646 186.264 189.275 186.424 189.798 186.744C190.331 187.064 190.737 187.517 191.014 188.104C191.302 188.68 191.446 189.357 191.446 190.136V190.984H185.574C185.595 191.955 185.841 192.696 186.31 193.208C186.79 193.709 187.457 193.96 188.31 193.96C188.854 193.96 189.334 193.912 189.75 193.816C190.177 193.709 190.614 193.56 191.062 193.368V194.6C190.625 194.792 190.193 194.931 189.766 195.016C189.339 195.112 188.833 195.16 188.246 195.16C187.435 195.16 186.715 194.995 186.086 194.664C185.467 194.333 184.982 193.843 184.63 193.192C184.289 192.531 184.118 191.725 184.118 190.776C184.118 189.837 184.273 189.032 184.582 188.36C184.902 187.688 185.345 187.171 185.91 186.808C186.486 186.445 187.153 186.264 187.91 186.264ZM187.894 187.416C187.222 187.416 186.689 187.635 186.294 188.072C185.91 188.499 185.681 189.096 185.606 189.864H189.974C189.974 189.373 189.899 188.947 189.75 188.584C189.601 188.221 189.371 187.939 189.062 187.736C188.763 187.523 188.374 187.416 187.894 187.416ZM208.586 190.488C208.607 190.659 208.618 190.803 208.618 190.92L208.586 191.48C208.031 191.533 207.508 191.56 207.018 191.56L204.874 191.48C204.852 191.405 204.842 191.267 204.842 191.064L204.874 190.488C205.428 190.435 205.951 190.408 206.442 190.408L208.586 190.488ZM223.752 184.136C223.944 184.072 224.467 184.003 225.32 183.928C226.174 183.843 226.947 183.8 227.64 183.8C228.344 183.8 228.888 183.832 229.272 183.896C229.283 183.939 229.288 183.992 229.288 184.056C229.288 184.109 229.256 184.243 229.192 184.456C229.139 184.669 229.096 184.808 229.064 184.872C228.979 184.957 228.739 185.021 228.344 185.064L231.4 193.912L232.92 194.04C232.92 194.339 232.83 194.659 232.648 195H228.968L228.92 194.44C229.166 194.312 229.523 194.2 229.992 194.104L229.176 191.816H224.712L223.96 193.912L225.256 194.04C225.256 194.339 225.166 194.659 224.984 195H221.304L221.256 194.44C221.672 194.291 222.115 194.173 222.584 194.088L225.688 185.016C224.739 184.909 224.072 184.781 223.688 184.632L223.752 184.136ZM227.912 188.248L227.064 185.112C227 185.101 226.91 185.096 226.792 185.096L225.928 188.36L225 190.792H228.888L227.912 188.248ZM242.412 186.68C243.436 186.68 244.178 186.936 244.636 187.448C245.095 187.949 245.324 188.717 245.324 189.752C245.324 190.051 245.282 191.437 245.196 193.912L246.54 194.04C246.54 194.339 246.45 194.659 246.268 195H242.588L242.54 194.44C243.031 194.269 243.511 194.141 243.98 194.056C243.916 191.261 243.858 189.709 243.804 189.4C243.762 189.08 243.687 188.803 243.58 188.568C243.474 188.333 243.314 188.168 243.1 188.072C242.887 187.976 242.604 187.928 242.252 187.928C241.548 187.928 240.866 188.099 240.204 188.44C240.14 190.872 240.098 192.696 240.076 193.912L241.42 194.04C241.42 194.339 241.33 194.659 241.148 195H237.468L237.42 194.44C237.911 194.269 238.391 194.141 238.86 194.056C238.796 191.347 238.743 189.341 238.7 188.04C238.114 188.008 237.644 187.944 237.292 187.848L237.356 187.016C237.932 186.856 238.77 186.776 239.868 186.776C239.996 186.968 240.092 187.245 240.156 187.608C240.615 187.363 241.074 187.149 241.532 186.968C242.002 186.776 242.295 186.68 242.412 186.68ZM264.364 184.792C264.311 186.584 264.252 189.624 264.188 193.912L265.532 194.04C265.532 194.339 265.441 194.659 265.26 195H261.58L261.532 194.44C262.151 194.216 262.641 194.088 263.004 194.056C262.897 189.939 262.812 186.851 262.748 184.792H260.412L260.028 186.424L259.1 186.36C258.94 185.709 258.86 185.048 258.86 184.376C258.86 184.248 258.871 184.056 258.892 183.8H268.108C268.129 183.939 268.14 184.152 268.14 184.44C268.14 185.016 268.065 185.645 267.916 186.328C267.681 186.392 267.372 186.424 266.988 186.424L266.588 184.792H264.364ZM276.59 194.232C277.486 194.232 278.088 193.955 278.398 193.4C278.718 192.835 278.878 192.035 278.878 191C278.878 189.357 278.515 188.328 277.79 187.912C277.491 187.741 277.07 187.656 276.526 187.656C275.992 187.656 275.486 187.768 275.006 187.992C274.579 188.813 274.366 189.768 274.366 190.856C274.366 191.901 274.504 192.707 274.782 193.272C275.102 193.912 275.704 194.232 276.59 194.232ZM272.894 191C272.894 189.645 273.203 188.589 273.822 187.832C274.44 187.064 275.395 186.68 276.686 186.68C277.976 186.68 278.91 187.032 279.486 187.736C280.062 188.429 280.35 189.459 280.35 190.824C280.35 192.189 280.04 193.261 279.422 194.04C278.814 194.819 277.886 195.208 276.638 195.208C275.39 195.208 274.451 194.845 273.822 194.12C273.203 193.395 272.894 192.355 272.894 191ZM290.335 185.048C290.09 185.336 289.876 185.555 289.695 185.704C288.756 185.256 287.999 184.755 287.423 184.2C287.434 184.051 287.492 183.896 287.599 183.736C287.716 183.576 287.882 183.405 288.095 183.224L290.335 185.048ZM291.775 189.768L291.695 193.896C292.154 193.928 292.612 194.003 293.071 194.12L293.039 194.68C292.868 194.765 292.559 194.861 292.111 194.968C291.674 195.064 291.242 195.112 290.815 195.112C290.623 194.728 290.516 194.36 290.495 194.008C289.279 194.808 288.426 195.208 287.935 195.208C287.178 195.208 286.57 195.005 286.111 194.6C285.652 194.195 285.423 193.629 285.423 192.904C285.423 191.229 286.447 190.365 288.495 190.312C289.69 190.28 290.292 190.264 290.303 190.264L290.287 189.72C290.266 188.984 290.127 188.456 289.871 188.136C289.615 187.805 289.156 187.64 288.495 187.64C288.218 187.64 287.919 187.704 287.599 187.832L287.215 189.432C287.162 189.443 287.071 189.448 286.943 189.448L286.287 189.4C286.116 188.941 286.026 188.307 286.015 187.496C286.218 187.389 286.682 187.229 287.407 187.016C288.132 186.792 288.596 186.68 288.799 186.68C289.887 186.68 290.655 186.92 291.103 187.4C291.551 187.88 291.775 188.669 291.775 189.768ZM288.287 194.12C288.596 194.12 289.311 193.773 290.431 193.08L290.351 191.08C289.626 191.144 289.018 191.203 288.527 191.256C288.036 191.309 287.642 191.453 287.343 191.688C287.044 191.912 286.895 192.269 286.895 192.76C286.895 193.667 287.359 194.12 288.287 194.12ZM302.8 186.68C303.824 186.68 304.565 186.936 305.024 187.448C305.483 187.949 305.712 188.717 305.712 189.752C305.712 190.051 305.669 191.437 305.584 193.912L306.928 194.04C306.928 194.339 306.837 194.659 306.656 195H302.976L302.928 194.44C303.419 194.269 303.899 194.141 304.368 194.056C304.304 191.261 304.245 189.709 304.192 189.4C304.149 189.08 304.075 188.803 303.968 188.568C303.861 188.333 303.701 188.168 303.488 188.072C303.275 187.976 302.992 187.928 302.64 187.928C301.936 187.928 301.253 188.099 300.592 188.44C300.528 190.872 300.485 192.696 300.464 193.912L301.808 194.04C301.808 194.339 301.717 194.659 301.536 195H297.856L297.808 194.44C298.299 194.269 298.779 194.141 299.248 194.056C299.184 191.347 299.131 189.341 299.088 188.04C298.501 188.008 298.032 187.944 297.68 187.848L297.744 187.016C298.32 186.856 299.157 186.776 300.256 186.776C300.384 186.968 300.48 187.245 300.544 187.608C301.003 187.363 301.461 187.149 301.92 186.968C302.389 186.776 302.683 186.68 302.8 186.68Z" fill="#45EFA7"/>
<defs>
<linearGradient id="paint0_linear_363_774" x1="169" y1="83" x2="233" y2="83" gradientUnits="userSpaceOnUse">
<stop stop-color="#277B83"/>
<stop offset="1" stop-color="#54979D"/>
</linearGradient>
<linearGradient id="paint1_linear_363_774" x1="57" y1="149" x2="343" y2="149" gradientUnits="userSpaceOnUse">
<stop stop-color="#54979D"/>
<stop offset="1" stop-color="#277B83"/>
</linearGradient>
</defs>
</svg>
